<svg width="31" height="64" viewBox="0 0 31 64" fill="none" xmlns="http://www.w3.org/2000/svg">
<path d="M9.29993 13.8708C8.63924 13.8708 8.15487 13.2288 8.42612 12.6105C9.03713 11.2143 10.0301 10.0287 11.2853 9.19687C12.5405 8.365 14.0042 7.92236 15.4999 7.92236C16.9956 7.92236 18.4594 8.365 19.7145 9.19687C20.9697 10.0287 21.9627 11.2143 22.5737 12.6105C22.845 13.2288 22.3606 13.8708 21.698 13.8708C21.4874 13.8633 21.283 13.7964 21.1072 13.6775C20.9315 13.5586 20.7913 13.3923 20.7021 13.1971C21.1438 14.1034 21.3518 15.1101 21.3063 16.1217C21.2608 17.1332 20.9635 18.1162 20.4424 18.9773C19.9213 19.8383 19.1938 20.549 18.3288 21.0418C17.4638 21.5347 16.4901 21.7933 15.4999 21.7933C14.5098 21.7933 13.536 21.5347 12.6711 21.0418C11.8061 20.549 11.0786 19.8383 10.5575 18.9773C10.0364 18.1162 9.73902 17.1332 9.69356 16.1217C9.6481 15.1101 9.85607 14.1034 10.2977 13.1971C10.2086 13.3923 10.0684 13.5586 9.89265 13.6775C9.71691 13.7964 9.51051 13.8633 9.29993 13.8708ZM19.3749 13.8708C19.3749 13.3452 19.1708 12.8412 18.8075 12.4696C18.4441 12.098 17.9513 11.8892 17.4374 11.8892C16.9236 11.8892 16.4308 12.098 16.0674 12.4696C15.7041 12.8412 15.4999 13.3452 15.4999 13.8708C15.4999 14.3963 15.7041 14.9003 16.0674 15.2719C16.4308 15.6435 16.9236 15.8523 17.4374 15.8523C17.9513 15.8523 18.4441 15.6435 18.8075 15.2719C19.1708 14.9003 19.3749 14.3963 19.3749 13.8708ZM8.42612 28.4628C8.15487 29.081 8.63924 29.7231 9.30187 29.7231C9.51245 29.7155 9.71691 29.6486 9.89265 29.5297C10.0684 29.4109 10.2086 29.2446 10.2977 29.0493C9.85607 29.9557 9.6481 30.9623 9.69356 31.9739C9.73902 32.9855 10.0364 33.9685 10.5575 34.8295C11.0786 35.6906 11.8061 36.4013 12.6711 36.8941C13.536 37.3869 14.5098 37.6456 15.4999 37.6456C16.4901 37.6456 17.4638 37.3869 18.3288 36.8941C19.1938 36.4013 19.9213 35.6906 20.4424 34.8295C20.9635 33.9685 21.2608 32.9855 21.3063 31.9739C21.3518 30.9623 21.1438 29.9557 20.7021 29.0493C20.8939 29.4417 21.2679 29.7231 21.698 29.7231C22.3606 29.7231 22.845 29.081 22.5737 28.4628C21.9621 27.0673 20.9689 25.8824 19.7138 25.0511C18.4587 24.2198 16.9953 23.7775 15.4999 23.7775C14.0046 23.7775 12.5412 24.2198 11.2861 25.0511C10.031 25.8824 9.03775 27.0673 8.42612 28.4628ZM17.4374 31.7046C16.9236 31.7046 16.4308 31.4958 16.0674 31.1242C15.7041 30.7526 15.4999 30.2486 15.4999 29.7231C15.4999 29.1975 15.7041 28.6935 16.0674 28.3219C16.4308 27.9503 16.9236 27.7415 17.4374 27.7415C17.9513 27.7415 18.4441 27.9503 18.8075 28.3219C19.1708 28.6935 19.3749 29.1975 19.3749 29.7231C19.3749 30.2486 19.1708 30.7526 18.8075 31.1242C18.4441 31.4958 17.9513 31.7046 17.4374 31.7046ZM8.42418 44.3151C8.15293 44.9333 8.63731 45.5753 9.29993 45.5753C9.72812 45.5753 10.2958 44.9016 10.2958 44.9016C10.2958 44.9016 9.68743 45.5753 9.68743 47.5569C9.68749 48.4508 9.8847 49.3333 10.2644 50.1386C10.6441 50.9438 11.1964 51.6511 11.8804 52.2078C12.5644 52.7645 13.3623 53.1563 14.2148 53.3539C15.0672 53.5516 15.9523 53.5501 16.8042 53.3495C17.656 53.1489 18.4526 52.7544 19.1347 52.1953C19.8169 51.6363 20.3669 50.9271 20.7439 50.1205C21.121 49.314 21.3153 48.4308 21.3124 47.5369C21.3095 46.6429 21.1095 45.7611 20.7273 44.9571C20.82 45.1393 20.9588 45.2927 21.1292 45.4014C21.2996 45.5102 21.4953 45.5702 21.6961 45.5753C22.3587 45.5753 22.8431 44.9333 22.5718 44.3151C21.9608 42.9189 20.9678 41.7333 19.7126 40.9014C18.4574 40.0695 16.9937 39.6269 15.498 39.6269C14.0023 39.6269 12.5386 40.0695 11.2834 40.9014C10.0282 41.7333 9.0352 42.9189 8.42418 44.3151ZM19.3749 45.5753C19.3749 46.1009 19.1708 46.6049 18.8075 46.9765C18.4441 47.3481 17.9513 47.5569 17.4374 47.5569C16.9236 47.5569 16.4308 47.3481 16.0674 46.9765C15.7041 46.6049 15.4999 46.1009 15.4999 45.5753C15.4999 45.0498 15.7041 44.5458 16.0674 44.1742C16.4308 43.8026 16.9236 43.5938 17.4374 43.5938C17.9513 43.5938 18.4441 43.8026 18.8075 44.1742C19.1708 44.5458 19.3749 45.0498 19.3749 45.5753Z" fill="#045966"/>
<path d="M31 15.8642C31 7.11371 24.0579 0 15.5 0C6.94206 0 0 7.11371 0 15.8642V47.5449C0 56.2954 6.94206 63.4091 15.5 63.4091C24.0579 63.4091 31 56.2954 31 47.5449V15.8642ZM15.5 3.96307C21.9131 3.96307 27.125 9.29934 27.125 15.8642V47.5449C27.123 50.6986 25.8979 53.7227 23.7186 55.9538C21.5392 58.1848 18.5836 59.4408 15.5 59.446C9.08687 59.446 3.875 54.1097 3.875 47.5449V15.8642C3.87705 12.7105 5.10211 9.68642 7.28144 7.45533C9.46077 5.22424 12.4164 3.96831 15.5 3.96307Z" fill="#045966"/>
<ellipse cx="17.6017" cy="13.9715" rx="2.62712" ry="2.68683" fill="#045966"/>
<ellipse cx="17.6017" cy="29.0176" rx="2.62712" ry="2.68683" fill="#045966"/>
<ellipse cx="17.6017" cy="45.676" rx="2.62712" ry="2.68683" fill="#045966"/>
</svg>
