<svg width="59" height="118" viewBox="0 0 59 118" fill="none" xmlns="http://www.w3.org/2000/svg">
<path d="M17.7 25.8125C16.4426 25.8125 15.5207 24.6177 16.0369 23.4672C17.1998 20.869 19.0898 18.6627 21.4787 17.1147C23.8676 15.5666 26.6534 14.7429 29.5 14.7429C32.3466 14.7429 35.1325 15.5666 37.5214 17.1147C39.9103 18.6627 41.8002 20.869 42.9631 23.4672C43.4793 24.6177 42.5574 25.8125 41.2963 25.8125C40.8955 25.7985 40.5064 25.674 40.1719 25.4528C39.8374 25.2315 39.5706 24.9221 39.4009 24.5587C40.2415 26.2454 40.6374 28.1187 40.5508 30.0012C40.4643 31.8837 39.8984 33.7129 38.9066 35.3153C37.9148 36.9177 36.5302 38.2402 34.8839 39.1573C33.2377 40.0745 31.3845 40.5559 29.5 40.5559C27.6155 40.5559 25.7623 40.0745 24.1161 39.1573C22.4698 38.2402 21.0852 36.9177 20.0934 35.3153C19.1017 33.7129 18.5357 31.8837 18.4492 30.0012C18.3627 28.1187 18.7585 26.2454 19.5991 24.5587C19.4294 24.9221 19.1626 25.2315 18.8281 25.4528C18.4936 25.674 18.1008 25.7985 17.7 25.8125ZM36.875 25.8125C36.875 24.8345 36.4865 23.8966 35.795 23.205C35.1034 22.5135 34.1655 22.125 33.1875 22.125C32.2095 22.125 31.2716 22.5135 30.58 23.205C29.8885 23.8966 29.5 24.8345 29.5 25.8125C29.5 26.7905 29.8885 27.7284 30.58 28.42C31.2716 29.1115 32.2095 29.5 33.1875 29.5C34.1655 29.5 35.1034 29.1115 35.795 28.42C36.4865 27.7284 36.875 26.7905 36.875 25.8125ZM16.0369 52.9672C15.5207 54.1177 16.4426 55.3125 17.7037 55.3125C18.1045 55.2985 18.4936 55.174 18.8281 54.9528C19.1626 54.7315 19.4294 54.4221 19.5991 54.0587C18.7585 55.7453 18.3627 57.6187 18.4492 59.5012C18.5357 61.3837 19.1017 63.2129 20.0934 64.8153C21.0852 66.4177 22.4698 67.7402 24.1161 68.6573C25.7623 69.5745 27.6155 70.0559 29.5 70.0559C31.3845 70.0559 33.2377 69.5745 34.8839 68.6573C36.5302 67.7402 37.9148 66.4177 38.9066 64.8153C39.8984 63.2129 40.4643 61.3837 40.5508 59.5012C40.6374 57.6187 40.2415 55.7453 39.4009 54.0587C39.766 54.7889 40.4777 55.3125 41.2963 55.3125C42.5574 55.3125 43.4793 54.1177 42.9631 52.9672C41.799 50.3703 39.9087 48.1654 37.5199 46.6184C35.1312 45.0713 32.3459 44.2482 29.5 44.2482C26.6541 44.2482 23.8689 45.0713 21.4801 46.6184C19.0913 48.1654 17.201 50.3703 16.0369 52.9672ZM33.1875 59C32.2095 59 31.2716 58.6115 30.58 57.92C29.8885 57.2284 29.5 56.2905 29.5 55.3125C29.5 54.3345 29.8885 53.3966 30.58 52.705C31.2716 52.0135 32.2095 51.625 33.1875 51.625C34.1655 51.625 35.1034 52.0135 35.795 52.705C36.4865 53.3966 36.875 54.3345 36.875 55.3125C36.875 56.2905 36.4865 57.2284 35.795 57.92C35.1034 58.6115 34.1655 59 33.1875 59ZM16.0333 82.4673C15.517 83.6178 16.4389 84.8125 17.7 84.8125C18.5149 84.8125 19.5954 83.5588 19.5954 83.5588C19.5954 83.5588 18.4375 84.8125 18.4375 88.5C18.4376 90.1637 18.813 91.8058 19.5356 93.3044C20.2582 94.8029 21.3095 96.1191 22.6112 97.1551C23.9129 98.191 25.4316 98.9201 27.054 99.2879C28.6765 99.6558 30.361 99.6529 31.9823 99.2796C33.6035 98.9063 35.1196 98.1722 36.4179 97.1319C37.7161 96.0915 38.763 94.7717 39.4805 93.2708C40.1981 91.7699 40.5679 90.1264 40.5624 88.4628C40.557 86.7991 40.1763 85.1582 39.4489 83.662C39.6254 84.001 39.8895 84.2866 40.2137 84.4889C40.538 84.6912 40.9105 84.803 41.2926 84.8125C42.5538 84.8125 43.4756 83.6178 42.9594 82.4673C41.7965 79.869 39.9066 77.6627 37.5177 76.1147C35.1288 74.5666 32.3429 73.7429 29.4963 73.7429C26.6497 73.7429 23.8639 74.5666 21.475 76.1147C19.0861 77.6627 17.1962 79.869 16.0333 82.4673ZM36.875 84.8125C36.875 85.7905 36.4865 86.7284 35.795 87.42C35.1034 88.1115 34.1655 88.5 33.1875 88.5C32.2095 88.5 31.2716 88.1115 30.58 87.42C29.8885 86.7284 29.5 85.7905 29.5 84.8125C29.5 83.8345 29.8885 82.8966 30.58 82.205C31.2716 81.5135 32.2095 81.125 33.1875 81.125C34.1655 81.125 35.1034 81.5135 35.795 82.205C36.4865 82.8966 36.875 83.8345 36.875 84.8125Z" fill="#D1FF75"/>
<path d="M59 29.5221C59 13.2381 45.7877 0 29.5 0C13.2123 0 0 13.2381 0 29.5221V88.4779C0 104.762 13.2123 118 29.5 118C45.7877 118 59 104.762 59 88.4779V29.5221ZM29.5 7.375C41.7056 7.375 51.625 17.3054 51.625 29.5221V88.4779C51.6211 94.3466 49.2895 99.9742 45.1418 104.126C40.994 108.278 35.3687 110.615 29.5 110.625C17.2944 110.625 7.375 100.695 7.375 88.4779V29.5221C7.3789 23.6534 9.71046 18.0258 13.8582 13.8739C18.006 9.72195 23.6313 7.38476 29.5 7.375Z" fill="#D1FF75"/>
<circle cx="33.5" cy="26" r="5" fill="#D1FF75"/>
<circle cx="33.5" cy="54" r="5" fill="#D1FF75"/>
<circle cx="33.5" cy="85" r="5" fill="#D1FF75"/>
</svg>
