<svg width="224" height="93" viewBox="0 0 224 93" fill="none" xmlns="http://www.w3.org/2000/svg">
<rect width="224" height="93" fill="#D3EED6" fill-opacity="0.46"/>
<path d="M104.166 47.6673H119.831V45.5007H104.166V47.6673ZM104.166 53.6668H119.831V51.5002H104.166V53.6668ZM104.166 59.6685H113.331V57.5018H104.166V59.6685ZM100.331 66.5C99.3345 66.5 98.5025 66.1663 97.8352 65.499C97.1679 64.8317 96.8335 63.9989 96.832 63.0008V30.9992C96.832 30.0025 97.1664 29.1705 97.8352 28.5032C98.504 27.8358 99.3367 27.5014 100.333 27.5H117.415L127.165 37.25V63.0008C127.165 63.9975 126.832 64.8302 126.164 65.499C125.497 66.1678 124.664 66.5014 123.664 66.5H100.331ZM116.332 38.3333V29.6667H100.333C99.9997 29.6667 99.6935 29.8053 99.4147 30.0827C99.1359 30.36 98.9973 30.6655 98.9987 30.9992V63.0008C98.9987 63.3331 99.1374 63.6386 99.4147 63.9173C99.692 64.1961 99.9975 64.3348 100.331 64.3333H123.666C123.998 64.3333 124.304 64.1947 124.583 63.9173C124.861 63.64 125 63.3338 124.999 62.9987V38.3333H116.332Z" fill="#0C5257"/>
</svg>
