<svg width="241" height="42" viewBox="0 0 241 42" fill="none" xmlns="http://www.w3.org/2000/svg">
<path d="M5.40024 8.06705C5.01662 8.06705 4.73537 7.69367 4.89287 7.33408C5.24765 6.52208 5.82425 5.83255 6.55307 5.34878C7.2819 4.86498 8.13179 4.60754 9.00026 4.60754C9.86873 4.60754 10.7186 4.86498 11.4474 5.34878C12.1763 5.83255 12.7529 6.52208 13.1076 7.33408C13.2651 7.69367 12.9839 8.06705 12.5991 8.06705C12.4769 8.06269 12.3581 8.02378 12.2561 7.95463C12.154 7.88548 12.0726 7.78876 12.0209 7.67524C12.2773 8.20233 12.3981 8.7878 12.3717 9.37613C12.3453 9.9644 12.1726 10.5361 11.87 11.0369C11.5675 11.5376 11.145 11.951 10.6428 12.2376C10.1406 12.5242 9.57516 12.6746 9.00026 12.6746C8.4253 12.6746 7.85993 12.5242 7.35767 12.2376C6.85541 11.951 6.433 11.5376 6.13042 11.0369C5.82785 10.5361 5.6552 9.9644 5.6288 9.37613C5.60241 8.7878 5.72316 8.20233 5.97963 7.67524C5.92783 7.78876 5.84643 7.88548 5.7444 7.95463C5.64236 8.02378 5.52252 8.06269 5.40024 8.06705ZM11.2503 8.06705C11.2503 7.76137 11.1317 7.46825 10.9207 7.25214C10.7097 7.03602 10.4236 6.91459 10.1253 6.91459C9.82687 6.91459 9.54072 7.03602 9.32978 7.25214C9.11877 7.46825 9.00026 7.76137 9.00026 8.06705C9.00026 8.37267 9.11877 8.66579 9.32978 8.8819C9.54072 9.09802 9.82687 9.21945 10.1253 9.21945C10.4236 9.21945 10.7097 9.09802 10.9207 8.8819C11.1317 8.66579 11.2503 8.37267 11.2503 8.06705ZM4.89287 16.5535C4.73537 16.913 5.01662 17.2865 5.40137 17.2865C5.52365 17.282 5.64236 17.2431 5.7444 17.174C5.84643 17.1049 5.92783 17.0082 5.97963 16.8946C5.72316 17.4217 5.60241 18.0072 5.6288 18.5955C5.6552 19.1838 5.82785 19.7555 6.13042 20.2563C6.433 20.757 6.85541 21.1704 7.35767 21.457C7.85993 21.7436 8.4253 21.894 9.00026 21.894C9.57516 21.894 10.1406 21.7436 10.6428 21.457C11.145 21.1704 11.5675 20.757 11.87 20.2563C12.1726 19.7555 12.3453 19.1838 12.3717 18.5955C12.3981 18.0072 12.2773 17.4217 12.0209 16.8946C12.1323 17.1228 12.3494 17.2865 12.5991 17.2865C12.9839 17.2865 13.2651 16.913 13.1076 16.5535C12.7525 15.7419 12.1758 15.0528 11.447 14.5693C10.7182 14.0858 9.8685 13.8286 9.00026 13.8286C8.13196 13.8286 7.28225 14.0858 6.55348 14.5693C5.82471 15.0528 5.24801 15.7419 4.89287 16.5535ZM10.1253 18.4389C9.82687 18.4389 9.54072 18.3174 9.32978 18.1013C9.11877 17.8852 9.00026 17.5921 9.00026 17.2865C9.00026 16.9808 9.11877 16.6877 9.32978 16.4715C9.54072 16.2554 9.82687 16.134 10.1253 16.134C10.4236 16.134 10.7097 16.2554 10.9207 16.4715C11.1317 16.6877 11.2503 16.9808 11.2503 17.2865C11.2503 17.5921 11.1317 17.8852 10.9207 18.1013C10.7097 18.3174 10.4236 18.4389 10.1253 18.4389ZM4.89174 25.7729C4.73424 26.1324 5.01549 26.5058 5.40024 26.5058C5.64887 26.5058 5.97847 26.114 5.97847 26.114C5.97847 26.114 5.62524 26.5058 5.62524 27.6583C5.62528 28.1782 5.73979 28.6914 5.96023 29.1597C6.1807 29.628 6.50145 30.0394 6.89856 30.3632C7.29572 30.6869 7.75901 30.9148 8.25401 31.0297C8.74901 31.1447 9.26294 31.1438 9.75754 31.0271C10.2521 30.9105 10.7147 30.681 11.1108 30.3559C11.5068 30.0308 11.8263 29.6183 12.0452 29.1492C12.2641 28.6802 12.3769 28.1665 12.3752 27.6466C12.3736 27.1267 12.2574 26.6139 12.0355 26.1463C12.0894 26.2522 12.1699 26.3415 12.2688 26.4047C12.3678 26.468 12.4814 26.5028 12.598 26.5058C12.9827 26.5058 13.264 26.1324 13.1065 25.7729C12.7517 24.9609 12.1751 24.2714 11.4463 23.7876C10.7175 23.3037 9.86757 23.0463 8.9991 23.0463C8.13063 23.0463 7.28074 23.3037 6.55191 23.7876C5.82309 24.2714 5.24653 24.9609 4.89174 25.7729ZM11.2503 26.5058C11.2503 26.8115 11.1317 27.1046 10.9207 27.3207C10.7097 27.5368 10.4236 27.6583 10.1253 27.6583C9.82687 27.6583 9.54072 27.5368 9.32978 27.3207C9.11877 27.1046 9.00026 26.8115 9.00026 26.5058C9.00026 26.2002 9.11877 25.9071 9.32978 25.691C9.54072 25.4748 9.82687 25.3534 10.1253 25.3534C10.4236 25.3534 10.7097 25.4748 10.9207 25.691C11.1317 25.9071 11.2503 26.2002 11.2503 26.5058Z" fill="#045966"/>
<path d="M18 9.22633C18 4.13721 13.9691 0 9 0C4.03087 0 0 4.13721 0 9.22633V27.6513C0 32.7404 4.03087 36.8776 9 36.8776C13.9691 36.8776 18 32.7404 18 27.6513V9.22633ZM9 2.30485C12.7237 2.30485 15.75 5.40833 15.75 9.22633V27.6513C15.7488 29.4854 15.0375 31.2442 13.7721 32.5417C12.5066 33.8393 10.7905 34.5697 9 34.5727C5.27625 34.5727 2.25 31.4692 2.25 27.6513V9.22633C2.25119 7.3922 2.96252 5.63345 4.22793 4.33589C5.49335 3.03832 7.20952 2.3079 9 2.30485Z" fill="#045966"/>
<path d="M10.2202 9.68821C11.0627 9.68821 11.7457 8.98861 11.7457 8.1256C11.7457 7.26259 11.0627 6.56299 10.2202 6.56299C9.37778 6.56299 8.69482 7.26259 8.69482 8.1256C8.69482 8.98861 9.37778 9.68821 10.2202 9.68821Z" fill="#045966"/>
<path d="M10.2202 18.4388C11.0627 18.4388 11.7457 17.7392 11.7457 16.8762C11.7457 16.0132 11.0627 15.3136 10.2202 15.3136C9.37778 15.3136 8.69482 16.0132 8.69482 16.8762C8.69482 17.7392 9.37778 18.4388 10.2202 18.4388Z" fill="#045966"/>
<path d="M10.2202 28.1269C11.0627 28.1269 11.7457 27.4273 11.7457 26.5643C11.7457 25.7013 11.0627 25.0017 10.2202 25.0017C9.37778 25.0017 8.69482 25.7013 8.69482 26.5643C8.69482 27.4273 9.37778 28.1269 10.2202 28.1269Z" fill="#045966"/>
<path d="M41.9705 34C39.1997 34 36.6693 33.3452 34.3792 32.0358C32.1173 30.7264 30.3221 28.9045 28.9932 26.5703C27.6644 24.2075 27 21.5174 27 18.5C27 15.4826 27.6361 12.7925 28.9084 10.4298C30.1807 8.06703 31.9477 6.24518 34.2096 4.96419C36.4997 3.65472 39.0866 3 41.9705 3C43.8082 3 45.6035 3.32736 47.3564 3.98209C49.1094 4.63681 50.6785 5.60468 52.0639 6.88567C53.4492 8.16666 54.4954 9.73229 55.2021 11.5827L49.5617 14.6143C48.7983 12.764 47.7805 11.3834 46.5083 10.4725C45.2642 9.53307 43.7516 9.06336 41.9705 9.06336C40.4155 9.06336 39.03 9.44767 37.8144 10.2163C36.5987 10.9564 35.6515 12.0381 34.9729 13.4614C34.2944 14.8848 33.9551 16.5642 33.9551 18.5C33.9551 20.3788 34.3086 22.0441 35.0153 23.4959C35.7505 24.9192 36.7259 26.0152 37.9416 26.7838C39.1856 27.5523 40.5285 27.9366 41.9705 27.9366C43.5538 27.9366 44.8825 27.6662 45.9569 27.1253C47.0313 26.556 47.8512 25.759 48.4167 24.7342C48.9822 23.7094 49.3073 22.4711 49.3921 21.0193L52.4879 22.0441H41.9705V16.7066H55.9231C56.0361 17.5322 56.0927 18.4146 56.0927 19.354C56.0927 22.4284 55.4566 25.0758 54.1843 27.2961C52.9403 29.4881 51.2439 31.1534 49.0952 32.292C46.9465 33.4306 44.5716 34 41.9705 34ZM59.3238 11.2838H65.5579V14.1873C66.1517 12.9917 66.9009 12.1093 67.8056 11.54C68.7104 10.9706 69.7423 10.686 70.9015 10.686H71.9617V17.4325H69.5444C68.7811 17.4325 68.0883 17.6033 67.4664 17.9449C66.8726 18.2865 66.4061 18.7989 66.0669 19.4821C65.7276 20.1369 65.5579 20.9482 65.5579 21.916V33.4449H59.3238V11.2838ZM84.2902 34C82.085 34 80.1341 33.516 78.4378 32.5482C76.7414 31.5804 75.4267 30.214 74.4937 28.449C73.5607 26.6841 73.0942 24.6488 73.0942 22.343C73.0942 20.0656 73.5465 18.0446 74.4513 16.2796C75.3843 14.5147 76.6708 13.1483 78.3105 12.1805C79.9503 11.1841 81.8305 10.686 83.951 10.686C86.0148 10.686 87.8384 11.1841 89.4218 12.1805C91.0051 13.1483 92.235 14.5147 93.1114 16.2796C94.0161 18.0446 94.4685 20.0656 94.4685 22.343C94.4685 22.5708 94.4685 22.8127 94.4685 23.0689C94.4685 23.2967 94.4543 23.5243 94.426 23.7521H76.3597V19.5675H91.0757L88.4039 23.2824C88.4039 22.9692 88.4039 22.6562 88.4039 22.343C88.4039 20.0942 88.0081 18.4289 87.2165 17.3471C86.4531 16.2369 85.3647 15.6818 83.951 15.6818C82.9331 15.6818 82.085 15.9237 81.4064 16.4077C80.7279 16.8631 80.219 17.589 79.8797 18.5854C79.5404 19.5532 79.3708 20.8058 79.3708 22.343C79.3708 23.8232 79.5546 25.0331 79.9221 25.9725C80.2896 26.9118 80.8127 27.595 81.4912 28.022C82.198 28.449 83.0321 28.6625 83.9934 28.6625C85.2656 28.6625 86.3259 28.3494 87.1741 27.7231C88.0223 27.0969 88.7008 26.1006 89.2097 24.7342L94.4685 26.613C93.6769 29.0326 92.3762 30.8686 90.5668 32.1212C88.7856 33.3738 86.6934 34 84.2902 34ZM107.98 34C105.774 34 103.824 33.516 102.127 32.5482C100.431 31.5804 99.1162 30.214 98.1832 28.449C97.2502 26.6841 96.7837 24.6488 96.7837 22.343C96.7837 20.0656 97.2361 18.0446 98.1408 16.2796C99.0738 14.5147 100.36 13.1483 102 12.1805C103.64 11.1841 105.52 10.686 107.641 10.686C109.705 10.686 111.528 11.1841 113.112 12.1805C114.694 13.1483 115.924 14.5147 116.802 16.2796C117.705 18.0446 118.159 20.0656 118.159 22.343C118.159 22.5708 118.159 22.8127 118.159 23.0689C118.159 23.2967 118.144 23.5243 118.116 23.7521H100.049V19.5675H114.766L112.094 23.2824C112.094 22.9692 112.094 22.6562 112.094 22.343C112.094 20.0942 111.698 18.4289 110.907 17.3471C110.143 16.2369 109.054 15.6818 107.641 15.6818C106.623 15.6818 105.774 15.9237 105.096 16.4077C104.417 16.8631 103.908 17.589 103.569 18.5854C103.23 19.5532 103.06 20.8058 103.06 22.343C103.06 23.8232 103.244 25.0331 103.612 25.9725C103.979 26.9118 104.502 27.595 105.181 28.022C105.888 28.449 106.722 28.6625 107.683 28.6625C108.955 28.6625 110.016 28.3494 110.864 27.7231C111.712 27.0969 112.391 26.1006 112.9 24.7342L118.159 26.613C117.366 29.0326 116.066 30.8686 114.257 32.1212C112.476 33.3738 110.383 34 107.98 34ZM121.365 11.2838H127.599V16.9201L126.708 16.2369C127.188 14.3297 128.008 12.9348 129.168 12.0524C130.326 11.1414 131.726 10.686 133.366 10.686C134.808 10.686 136.108 11.0276 137.268 11.7108C138.426 12.3939 139.331 13.376 139.982 14.657C140.661 15.9096 141 17.3471 141 18.9697V33.4449H134.766V20.0799C134.766 18.8273 134.454 17.8595 133.833 17.1763C133.239 16.4931 132.461 16.1515 131.5 16.1515C130.341 16.1515 129.393 16.5358 128.659 17.3044C127.951 18.0446 127.599 19.0978 127.599 20.4642V33.4449H121.365V11.2838Z" fill="#045966"/>
<path d="M167.019 27.9903V33.7961H147V4.34628H153.659V27.9903H167.019ZM175.8 33.7961H169.565V11.9612H175.8V33.7961ZM172.746 10.1521C171.615 10.1521 170.668 9.84354 169.904 9.22654C169.169 8.5814 168.801 7.71197 168.801 6.61812C168.801 5.52427 169.169 4.65484 169.904 4.00971C170.668 3.33657 171.615 3 172.746 3C173.849 3 174.768 3.33657 175.503 4.00971C176.266 4.65484 176.648 5.52427 176.648 6.61812C176.648 7.71197 176.28 8.5814 175.545 9.22654C174.81 9.84354 173.877 10.1521 172.746 10.1521ZM190.27 42C187.527 42 185.265 41.7616 183.484 41.2848C181.731 40.8079 180.458 40.1769 179.666 39.3916C178.875 38.6063 178.479 37.7508 178.479 36.8252C178.479 35.8435 178.776 34.9882 179.37 34.2589C179.992 33.5578 180.868 32.9688 181.999 32.4919C181.01 32.0432 180.232 31.4681 179.666 30.767C179.129 30.0377 178.861 29.1823 178.861 28.2006C178.861 27.0788 179.2 26.1392 179.879 25.3819C180.585 24.6246 181.575 24.0636 182.848 23.699C181.971 23.11 181.292 22.4228 180.812 21.6375C180.359 20.8523 180.133 19.9126 180.133 18.8188C180.133 17.3042 180.557 15.9859 181.405 14.8641C182.282 13.7422 183.47 12.8867 184.968 12.2977C186.495 11.6807 188.234 11.3722 190.185 11.3722C190.638 11.3722 191.09 11.3722 191.542 11.3722C193.522 11.3442 195.19 11.246 196.547 11.0777C197.904 10.8814 199.149 10.4887 200.28 9.89967L202.103 14.5275C201.029 14.9762 199.686 15.3689 198.074 15.7055C198.753 16.1823 199.248 16.7293 199.559 17.3463C199.898 17.9633 200.068 18.6926 200.068 19.534C200.068 20.8523 199.629 22.0021 198.753 22.9838C197.904 23.9374 196.703 24.6807 195.148 25.2136C193.592 25.7184 191.797 25.9709 189.761 25.9709C188.489 25.9709 187.555 25.9849 186.962 26.0129C186.396 26.0409 185.859 26.1532 185.35 26.3495C184.869 26.5178 184.629 26.8264 184.629 27.2751C184.629 27.8079 185.124 28.1445 186.113 28.2848C187.131 28.3969 188.517 28.4531 190.27 28.4531H191.542C194.907 28.4531 197.494 29.0561 199.304 30.2621C201.114 31.4401 202.019 33.0388 202.019 35.0582C202.019 37.2179 201.043 38.9147 199.092 40.1489C197.169 41.383 194.229 42 190.27 42ZM190.228 37.5825C192.009 37.5825 193.281 37.4283 194.045 37.1197C194.836 36.8112 195.232 36.3344 195.232 35.6893C195.232 35.0442 194.836 34.5675 194.045 34.2589C193.281 33.9503 192.009 33.7961 190.228 33.7961C188.446 33.7961 187.16 33.9503 186.368 34.2589C185.576 34.5675 185.18 35.0442 185.18 35.6893C185.18 36.3344 185.576 36.8112 186.368 37.1197C187.16 37.4283 188.446 37.5825 190.228 37.5825ZM190.185 21.343C191.458 21.343 192.405 21.1186 193.027 20.6699C193.677 20.2212 194.002 19.5901 194.002 18.7767C194.002 17.9633 193.677 17.3183 193.027 16.8414C192.405 16.3646 191.458 16.1262 190.185 16.1262C188.884 16.1262 187.895 16.3646 187.216 16.8414C186.566 17.3183 186.241 17.9633 186.241 18.7767C186.241 19.5901 186.566 20.2212 187.216 20.6699C187.895 21.1186 188.884 21.343 190.185 21.343ZM204.482 4.34628H210.717V17.5146L209.826 16.8414C210.307 14.9623 211.127 13.5879 212.286 12.7184C213.445 11.8209 214.845 11.3722 216.485 11.3722C217.927 11.3722 219.228 11.7087 220.387 12.3819C221.546 13.055 222.451 14.0226 223.102 15.2848C223.78 16.5189 224.12 17.9353 224.12 19.534V33.7961H217.885V20.6278C217.885 19.3937 217.574 18.4401 216.952 17.767C216.358 17.0938 215.58 16.7573 214.619 16.7573C213.46 16.7573 212.512 17.1359 211.777 17.8932C211.07 18.6225 210.717 19.6602 210.717 21.0065V33.7961H204.482V4.34628ZM237.819 33.7961C235.331 33.7961 233.393 33.0809 232.008 31.6505C230.623 30.2201 229.93 28.2427 229.93 25.7184V7.9644L236.165 4.72492V25.466C236.165 26.4757 236.362 27.233 236.759 27.7379C237.183 28.2427 237.804 28.4951 238.625 28.4951H241V33.7961H237.819ZM225.943 11.9612H241V16.7993H225.943V11.9612Z" fill="#045966"/>
</svg>
