<svg width="224" height="93" viewBox="0 0 224 93" fill="none" xmlns="http://www.w3.org/2000/svg">
<rect width="224" height="93" fill="#D3EED6" fill-opacity="0.46"/>
<path d="M126.853 38.8542H118.228C117.72 38.8542 117.232 38.6522 116.873 38.2928C116.513 37.9333 116.311 37.4458 116.311 36.9375V28.3125M126.853 38.8542V63.7708C126.853 64.2792 126.651 64.7667 126.291 65.1261C125.932 65.4856 125.445 65.6875 124.936 65.6875H99.0612C98.5529 65.6875 98.0654 65.4856 97.7059 65.1261C97.3465 64.7667 97.1445 64.2792 97.1445 63.7708V30.2292C97.1445 29.7208 97.3465 29.2333 97.7059 28.8739C98.0654 28.5144 98.5529 28.3125 99.0612 28.3125H116.311M126.853 38.8542L116.311 28.3125" stroke="#0C5257" stroke-width="2" stroke-linecap="round" stroke-linejoin="round"/>
<path d="M102.418 50.3542H121.585M112.001 44.125V56.5833M102.418 44.125H121.585V56.5833H102.418V44.125Z" stroke="#0C5257" stroke-width="2" stroke-linecap="round" stroke-linejoin="round"/>
</svg>
