<svg width="520" height="214" viewBox="0 0 520 214" fill="none" xmlns="http://www.w3.org/2000/svg">
<line x1="520" y1="151.5" x2="63" y2="151.5" stroke="#F0F0F0"/>
<line x1="520" y1="115.5" x2="63" y2="115.5" stroke="#F0F0F0"/>
<line x1="520" y1="81.5" x2="63" y2="81.5" stroke="#F0F0F0"/>
<line x1="520" y1="45.5" x2="63" y2="45.5" stroke="#F0F0F0"/>
<line x1="520" y1="9.5" x2="63" y2="9.5" stroke="#F0F0F0"/>
<line x1="64.0005" y1="-4.19719e-08" x2="64.0005" y2="185.534" stroke="#BFBFBF" stroke-width="2"/>
<line x1="520" y1="186.534" x2="63" y2="186.534" stroke="#BFBFBF" stroke-width="2"/>
<path d="M17.1797 4.85742H17.9727V17.2441H17.1797V4.85742ZM19.832 8.58984C19.7956 8.27083 19.6816 7.99512 19.4902 7.7627C19.2988 7.53027 19.0436 7.35482 18.7246 7.23633C18.4056 7.11784 18.0456 7.05859 17.6445 7.05859C17.2161 7.05859 16.8379 7.12695 16.5098 7.26367C16.1816 7.40039 15.9264 7.5918 15.7441 7.83789C15.5618 8.08398 15.4707 8.36654 15.4707 8.68555C15.4707 9.14128 15.6576 9.48991 16.0312 9.73145C16.4049 9.97298 16.8561 10.1621 17.3848 10.2988L18.3691 10.5723C19.1348 10.7637 19.7933 11.0645 20.3447 11.4746C20.8962 11.8848 21.1719 12.4954 21.1719 13.3066C21.1719 13.8444 21.0306 14.332 20.748 14.7695C20.4655 15.207 20.0531 15.5511 19.5107 15.8018C18.9684 16.0524 18.3236 16.1777 17.5762 16.1777C16.8743 16.1777 16.2614 16.0638 15.7373 15.8359C15.2132 15.6081 14.8031 15.2868 14.5068 14.8721C14.2106 14.4574 14.0443 13.9766 14.0078 13.4297H15.2656C15.3021 13.7852 15.4274 14.0837 15.6416 14.3252C15.8558 14.5667 16.1315 14.749 16.4688 14.8721C16.806 14.9951 17.1751 15.0566 17.5762 15.0566C18.0319 15.0566 18.4421 14.9837 18.8066 14.8379C19.1712 14.6921 19.4561 14.4824 19.6611 14.209C19.8662 13.9355 19.9688 13.6257 19.9688 13.2793C19.9688 12.9785 19.8844 12.7256 19.7158 12.5205C19.5472 12.3154 19.3239 12.1491 19.0459 12.0215C18.7679 11.8939 18.4238 11.7708 18.0137 11.6523L16.7969 11.3242C15.9857 11.0872 15.3636 10.7591 14.9307 10.3398C14.4977 9.92057 14.2812 9.38737 14.2812 8.74023C14.2812 8.19336 14.4316 7.71029 14.7324 7.29102C15.0332 6.87174 15.4411 6.5459 15.9561 6.31348C16.471 6.08105 17.0475 5.96484 17.6855 5.96484C18.3145 5.96484 18.8796 6.07878 19.3809 6.30664C19.8822 6.53451 20.2786 6.84668 20.5703 7.24316C20.862 7.63965 21.0169 8.08854 21.0352 8.58984H19.832ZM26.2715 16H25.0273V7.38672H24.9727L22.5664 8.98633V7.74219L25.0273 6.10156H26.2715V16ZM32.1504 16.1367C31.4212 16.1367 30.7992 15.9385 30.2842 15.542C29.7692 15.1455 29.375 14.5667 29.1016 13.8057C28.8281 13.0446 28.6914 12.1263 28.6914 11.0508C28.6914 9.98438 28.8281 9.07064 29.1016 8.30957C29.375 7.5485 29.7715 6.96745 30.291 6.56641C30.8105 6.16536 31.4303 5.96484 32.1504 5.96484C32.8704 5.96484 33.4902 6.16536 34.0098 6.56641C34.5293 6.96745 34.9258 7.5485 35.1992 8.30957C35.4727 9.07064 35.6094 9.98438 35.6094 11.0508C35.6094 12.1263 35.4749 13.0446 35.2061 13.8057C34.9372 14.5667 34.543 15.1455 34.0234 15.542C33.5039 15.9385 32.8796 16.1367 32.1504 16.1367ZM32.1504 15.043C32.6243 15.043 33.0299 14.888 33.3672 14.5781C33.7044 14.2682 33.9619 13.8148 34.1396 13.2178C34.3174 12.6208 34.4062 11.8984 34.4062 11.0508C34.4062 10.2031 34.3174 9.47852 34.1396 8.87695C33.9619 8.27539 33.7044 7.81738 33.3672 7.50293C33.0299 7.18848 32.6243 7.03125 32.1504 7.03125C31.6764 7.03125 31.2708 7.18848 30.9336 7.50293C30.5964 7.81738 30.3366 8.27539 30.1543 8.87695C29.972 9.47852 29.8809 10.2031 29.8809 11.0508C29.8809 11.8984 29.9697 12.6208 30.1475 13.2178C30.3252 13.8148 30.585 14.2682 30.9268 14.5781C31.2686 14.888 31.6764 15.043 32.1504 15.043ZM40.4902 16.1367C39.7611 16.1367 39.139 15.9385 38.624 15.542C38.109 15.1455 37.7148 14.5667 37.4414 13.8057C37.168 13.0446 37.0312 12.1263 37.0312 11.0508C37.0312 9.98438 37.168 9.07064 37.4414 8.30957C37.7148 7.5485 38.1113 6.96745 38.6309 6.56641C39.1504 6.16536 39.7702 5.96484 40.4902 5.96484C41.2103 5.96484 41.8301 6.16536 42.3496 6.56641C42.8691 6.96745 43.2656 7.5485 43.5391 8.30957C43.8125 9.07064 43.9492 9.98438 43.9492 11.0508C43.9492 12.1263 43.8148 13.0446 43.5459 13.8057C43.277 14.5667 42.8828 15.1455 42.3633 15.542C41.8438 15.9385 41.2194 16.1367 40.4902 16.1367ZM40.4902 15.043C40.9642 15.043 41.3698 14.888 41.707 14.5781C42.0443 14.2682 42.3018 13.8148 42.4795 13.2178C42.6572 12.6208 42.7461 11.8984 42.7461 11.0508C42.7461 10.2031 42.6572 9.47852 42.4795 8.87695C42.3018 8.27539 42.0443 7.81738 41.707 7.50293C41.3698 7.18848 40.9642 7.03125 40.4902 7.03125C40.0163 7.03125 39.6107 7.18848 39.2734 7.50293C38.9362 7.81738 38.6764 8.27539 38.4941 8.87695C38.3118 9.47852 38.2207 10.2031 38.2207 11.0508C38.2207 11.8984 38.3096 12.6208 38.4873 13.2178C38.665 13.8148 38.9248 14.2682 39.2666 14.5781C39.6084 14.888 40.0163 15.043 40.4902 15.043ZM48.8301 16.1367C48.1009 16.1367 47.4788 15.9385 46.9639 15.542C46.4489 15.1455 46.0547 14.5667 45.7812 13.8057C45.5078 13.0446 45.3711 12.1263 45.3711 11.0508C45.3711 9.98438 45.5078 9.07064 45.7812 8.30957C46.0547 7.5485 46.4512 6.96745 46.9707 6.56641C47.4902 6.16536 48.11 5.96484 48.8301 5.96484C49.5501 5.96484 50.1699 6.16536 50.6895 6.56641C51.209 6.96745 51.6055 7.5485 51.8789 8.30957C52.1523 9.07064 52.2891 9.98438 52.2891 11.0508C52.2891 12.1263 52.1546 13.0446 51.8857 13.8057C51.6169 14.5667 51.2227 15.1455 50.7031 15.542C50.1836 15.9385 49.5592 16.1367 48.8301 16.1367ZM48.8301 15.043C49.304 15.043 49.7096 14.888 50.0469 14.5781C50.3841 14.2682 50.6416 13.8148 50.8193 13.2178C50.9971 12.6208 51.0859 11.8984 51.0859 11.0508C51.0859 10.2031 50.9971 9.47852 50.8193 8.87695C50.6416 8.27539 50.3841 7.81738 50.0469 7.50293C49.7096 7.18848 49.304 7.03125 48.8301 7.03125C48.3561 7.03125 47.9505 7.18848 47.6133 7.50293C47.276 7.81738 47.0163 8.27539 46.834 8.87695C46.6517 9.47852 46.5605 10.2031 46.5605 11.0508C46.5605 11.8984 46.6494 12.6208 46.8271 13.2178C47.0049 13.8148 47.2646 14.2682 47.6064 14.5781C47.9482 14.888 48.3561 15.043 48.8301 15.043Z" fill="black"/>
<path d="M125.494 200.59C125.458 200.271 125.344 199.995 125.152 199.763C124.961 199.53 124.706 199.355 124.387 199.236C124.068 199.118 123.708 199.059 123.307 199.059C122.878 199.059 122.5 199.127 122.172 199.264C121.844 199.4 121.589 199.592 121.406 199.838C121.224 200.084 121.133 200.367 121.133 200.686C121.133 201.141 121.32 201.49 121.693 201.731C122.067 201.973 122.518 202.162 123.047 202.299L124.031 202.572C124.797 202.764 125.455 203.064 126.007 203.475C126.558 203.885 126.834 204.495 126.834 205.307C126.834 205.844 126.693 206.332 126.41 206.77C126.128 207.207 125.715 207.551 125.173 207.802C124.631 208.052 123.986 208.178 123.238 208.178C122.536 208.178 121.924 208.064 121.399 207.836C120.875 207.608 120.465 207.287 120.169 206.872C119.873 206.457 119.706 205.977 119.67 205.43H120.928C120.964 205.785 121.09 206.084 121.304 206.325C121.518 206.567 121.794 206.749 122.131 206.872C122.468 206.995 122.837 207.057 123.238 207.057C123.694 207.057 124.104 206.984 124.469 206.838C124.833 206.692 125.118 206.482 125.323 206.209C125.528 205.936 125.631 205.626 125.631 205.279C125.631 204.979 125.547 204.726 125.378 204.521C125.209 204.315 124.986 204.149 124.708 204.021C124.43 203.894 124.086 203.771 123.676 203.652L122.459 203.324C121.648 203.087 121.026 202.759 120.593 202.34C120.16 201.921 119.943 201.387 119.943 200.74C119.943 200.193 120.094 199.71 120.395 199.291C120.695 198.872 121.103 198.546 121.618 198.313C122.133 198.081 122.71 197.965 123.348 197.965C123.977 197.965 124.542 198.079 125.043 198.307C125.544 198.535 125.941 198.847 126.232 199.243C126.524 199.64 126.679 200.089 126.697 200.59H125.494ZM131.564 208.15C130.863 208.15 130.25 207.993 129.726 207.679C129.201 207.364 128.798 206.92 128.516 206.346C128.233 205.771 128.092 205.106 128.092 204.35C128.092 203.593 128.233 202.921 128.516 202.333C128.798 201.745 129.192 201.289 129.698 200.966C130.204 200.642 130.79 200.48 131.455 200.48C132.02 200.48 132.544 200.604 133.027 200.85C133.51 201.096 133.902 201.497 134.203 202.053C134.504 202.609 134.654 203.32 134.654 204.186V204.678H128.912V203.68H133.465C133.465 203.26 133.383 202.889 133.219 202.565C133.055 202.242 132.82 201.987 132.515 201.8C132.209 201.613 131.856 201.52 131.455 201.52C131.018 201.52 130.635 201.627 130.307 201.841C129.979 202.055 129.723 202.342 129.541 202.702C129.359 203.062 129.268 203.447 129.268 203.857V204.527C129.268 205.074 129.363 205.541 129.555 205.929C129.746 206.316 130.015 206.61 130.361 206.811C130.708 207.011 131.109 207.111 131.564 207.111C131.847 207.111 132.102 207.073 132.33 206.995C132.558 206.918 132.752 206.817 132.911 206.694C133.071 206.571 133.196 206.428 133.287 206.264H134.545C134.426 206.637 134.23 206.965 133.957 207.248C133.684 207.531 133.342 207.752 132.932 207.911C132.521 208.071 132.066 208.15 131.564 208.15ZM136.186 200.576H137.32V201.752H137.457C137.603 201.515 137.744 201.314 137.881 201.15C138.018 200.986 138.229 200.834 138.517 200.692C138.804 200.551 139.166 200.48 139.604 200.48C140.223 200.48 140.772 200.635 141.251 200.945C141.729 201.255 142.101 201.7 142.365 202.278C142.63 202.857 142.762 203.534 142.762 204.309C142.762 205.074 142.63 205.749 142.365 206.332C142.101 206.915 141.729 207.364 141.251 207.679C140.772 207.993 140.228 208.15 139.617 208.15C139.189 208.15 138.829 208.077 138.537 207.932C138.245 207.786 138.027 207.629 137.881 207.46C137.735 207.291 137.594 207.093 137.457 206.865H137.361V210.789H136.186V200.576ZM137.334 204.281C137.334 204.837 137.416 205.327 137.58 205.751C137.744 206.175 137.986 206.505 138.305 206.742C138.624 206.979 139.007 207.098 139.453 207.098C139.909 207.098 140.299 206.975 140.622 206.729C140.946 206.482 141.187 206.147 141.347 205.724C141.506 205.3 141.586 204.819 141.586 204.281C141.586 203.753 141.506 203.281 141.347 202.866C141.187 202.451 140.948 202.126 140.629 201.889C140.31 201.652 139.918 201.533 139.453 201.533C138.997 201.533 138.612 201.647 138.298 201.875C137.983 202.103 137.744 202.422 137.58 202.832C137.416 203.242 137.334 203.725 137.334 204.281Z" fill="black"/>
<path d="M236.446 203.051C236.446 204.072 236.259 204.967 235.886 205.737C235.512 206.507 234.995 207.1 234.334 207.515C233.673 207.929 232.919 208.137 232.071 208.137C231.224 208.137 230.469 207.929 229.809 207.515C229.148 207.1 228.631 206.507 228.257 205.737C227.883 204.967 227.696 204.072 227.696 203.051C227.696 202.021 227.883 201.123 228.257 200.357C228.631 199.592 229.148 199.002 229.809 198.587C230.469 198.172 231.224 197.965 232.071 197.965C232.919 197.965 233.673 198.172 234.334 198.587C234.995 199.002 235.512 199.592 235.886 200.357C236.259 201.123 236.446 202.021 236.446 203.051ZM235.257 203.051C235.257 202.221 235.118 201.51 234.84 200.918C234.562 200.326 234.184 199.877 233.705 199.571C233.227 199.266 232.682 199.113 232.071 199.113C231.47 199.113 230.927 199.266 230.444 199.571C229.961 199.877 229.581 200.326 229.303 200.918C229.025 201.51 228.886 202.221 228.886 203.051C228.886 203.88 229.025 204.591 229.303 205.184C229.581 205.776 229.961 206.225 230.444 206.53C230.927 206.836 231.47 206.988 232.071 206.988C232.682 206.988 233.227 206.836 233.705 206.53C234.184 206.225 234.562 205.776 234.84 205.184C235.118 204.591 235.257 203.88 235.257 203.051ZM241.136 208.15C240.452 208.15 239.853 207.986 239.338 207.658C238.823 207.33 238.429 206.877 238.155 206.298C237.882 205.719 237.745 205.061 237.745 204.322C237.745 203.575 237.886 202.91 238.169 202.326C238.451 201.743 238.846 201.289 239.352 200.966C239.857 200.642 240.443 200.48 241.108 200.48C241.637 200.48 242.113 200.576 242.537 200.768C242.961 200.959 243.305 201.232 243.569 201.588C243.834 201.943 243.998 202.354 244.062 202.818H242.886C242.831 202.581 242.726 202.365 242.571 202.169C242.416 201.973 242.218 201.816 241.977 201.697C241.735 201.579 241.455 201.52 241.136 201.52C240.698 201.52 240.313 201.633 239.98 201.861C239.648 202.089 239.388 202.41 239.201 202.825C239.014 203.24 238.921 203.725 238.921 204.281C238.921 204.846 239.012 205.341 239.194 205.765C239.377 206.188 239.634 206.517 239.967 206.749C240.299 206.981 240.689 207.098 241.136 207.098C241.427 207.098 241.694 207.048 241.936 206.947C242.177 206.847 242.38 206.699 242.544 206.503C242.708 206.307 242.822 206.077 242.886 205.812H244.062C243.998 206.259 243.838 206.658 243.583 207.009C243.328 207.36 242.991 207.638 242.571 207.843C242.152 208.048 241.674 208.15 241.136 208.15ZM248.751 201.561H244.882V200.576H248.751V201.561ZM247.192 198.799V205.867C247.192 206.168 247.236 206.398 247.322 206.558C247.409 206.717 247.523 206.826 247.664 206.886C247.805 206.945 247.972 206.975 248.163 206.975C248.391 206.975 248.623 206.965 248.86 206.947V208.041C248.623 208.077 248.35 208.096 248.04 208.096C247.694 208.096 247.366 208.023 247.056 207.877C246.746 207.731 246.493 207.512 246.297 207.221C246.101 206.929 246.003 206.578 246.003 206.168V198.799H247.192Z" fill="black"/>
<path d="M338.243 208H337.067L331.708 200.289H331.612V208H330.382V198.102H331.571L336.931 205.826H337.026V198.102H338.243V208ZM343.315 208.15C342.65 208.15 342.06 207.991 341.545 207.672C341.03 207.353 340.631 206.904 340.349 206.325C340.066 205.746 339.925 205.079 339.925 204.322C339.925 203.557 340.066 202.884 340.349 202.306C340.631 201.727 341.03 201.278 341.545 200.959C342.06 200.64 342.65 200.48 343.315 200.48C343.981 200.48 344.569 200.64 345.079 200.959C345.59 201.278 345.984 201.727 346.262 202.306C346.54 202.884 346.679 203.557 346.679 204.322C346.679 205.079 346.54 205.746 346.262 206.325C345.984 206.904 345.59 207.353 345.079 207.672C344.569 207.991 343.981 208.15 343.315 208.15ZM343.315 207.111C343.799 207.111 344.204 206.984 344.532 206.729C344.86 206.473 345.104 206.136 345.264 205.717C345.423 205.298 345.503 204.833 345.503 204.322C345.503 203.812 345.423 203.345 345.264 202.921C345.104 202.497 344.86 202.158 344.532 201.902C344.204 201.647 343.799 201.52 343.315 201.52C342.832 201.52 342.424 201.647 342.092 201.902C341.759 202.158 341.511 202.497 341.347 202.921C341.183 203.345 341.101 203.812 341.101 204.322C341.101 204.833 341.183 205.298 341.347 205.717C341.511 206.136 341.759 206.473 342.092 206.729C342.424 206.984 342.832 207.111 343.315 207.111ZM351.313 208H350.097L347.362 200.576H348.647L350.671 206.469H350.753L352.776 200.576H354.062L351.313 208Z" fill="black"/>
<path d="M439.051 208V206.906H441.361C442.163 206.906 442.831 206.751 443.364 206.441C443.897 206.132 444.296 205.689 444.561 205.115C444.825 204.541 444.957 203.848 444.957 203.037C444.957 202.235 444.827 201.547 444.567 200.973C444.308 200.398 443.92 199.959 443.405 199.653C442.89 199.348 442.25 199.195 441.484 199.195H438.996V198.102H441.566C442.523 198.102 443.346 198.298 444.034 198.689C444.722 199.081 445.249 199.649 445.613 200.392C445.978 201.134 446.16 202.016 446.16 203.037C446.16 204.067 445.976 204.953 445.606 205.696C445.237 206.439 444.7 207.009 443.993 207.405C443.287 207.802 442.437 208 441.443 208H439.051ZM439.598 208H438.367V198.102H439.598V208ZM450.932 208.15C450.23 208.15 449.617 207.993 449.093 207.679C448.569 207.364 448.165 206.92 447.883 206.346C447.6 205.771 447.459 205.106 447.459 204.35C447.459 203.593 447.6 202.921 447.883 202.333C448.165 201.745 448.56 201.289 449.065 200.966C449.571 200.642 450.157 200.48 450.822 200.48C451.387 200.48 451.911 200.604 452.395 200.85C452.878 201.096 453.27 201.497 453.57 202.053C453.871 202.609 454.021 203.32 454.021 204.186V204.678H448.279V203.68H452.832C452.832 203.26 452.75 202.889 452.586 202.565C452.422 202.242 452.187 201.987 451.882 201.8C451.576 201.613 451.223 201.52 450.822 201.52C450.385 201.52 450.002 201.627 449.674 201.841C449.346 202.055 449.09 202.342 448.908 202.702C448.726 203.062 448.635 203.447 448.635 203.857V204.527C448.635 205.074 448.73 205.541 448.922 205.929C449.113 206.316 449.382 206.61 449.729 206.811C450.075 207.011 450.476 207.111 450.932 207.111C451.214 207.111 451.469 207.073 451.697 206.995C451.925 206.918 452.119 206.817 452.278 206.694C452.438 206.571 452.563 206.428 452.654 206.264H453.912C453.794 206.637 453.598 206.965 453.324 207.248C453.051 207.531 452.709 207.752 452.299 207.911C451.889 208.071 451.433 208.15 450.932 208.15ZM458.588 208.15C457.904 208.15 457.305 207.986 456.79 207.658C456.275 207.33 455.881 206.877 455.607 206.298C455.334 205.719 455.197 205.061 455.197 204.322C455.197 203.575 455.339 202.91 455.621 202.326C455.904 201.743 456.298 201.289 456.804 200.966C457.31 200.642 457.895 200.48 458.561 200.48C459.089 200.48 459.565 200.576 459.989 200.768C460.413 200.959 460.757 201.232 461.021 201.588C461.286 201.943 461.45 202.354 461.514 202.818H460.338C460.283 202.581 460.178 202.365 460.023 202.169C459.868 201.973 459.67 201.816 459.429 201.697C459.187 201.579 458.907 201.52 458.588 201.52C458.15 201.52 457.765 201.633 457.433 201.861C457.1 202.089 456.84 202.41 456.653 202.825C456.466 203.24 456.373 203.725 456.373 204.281C456.373 204.846 456.464 205.341 456.646 205.765C456.829 206.188 457.086 206.517 457.419 206.749C457.752 206.981 458.141 207.098 458.588 207.098C458.88 207.098 459.146 207.048 459.388 206.947C459.629 206.847 459.832 206.699 459.996 206.503C460.16 206.307 460.274 206.077 460.338 205.812H461.514C461.45 206.259 461.29 206.658 461.035 207.009C460.78 207.36 460.443 207.638 460.023 207.843C459.604 208.048 459.126 208.15 458.588 208.15Z" fill="black"/>
<path d="M23.168 39.8574H23.9609V52.2441H23.168V39.8574ZM25.8203 43.5898C25.7839 43.2708 25.6699 42.9951 25.4785 42.7627C25.2871 42.5303 25.0319 42.3548 24.7129 42.2363C24.3939 42.1178 24.0339 42.0586 23.6328 42.0586C23.2044 42.0586 22.8262 42.127 22.498 42.2637C22.1699 42.4004 21.9147 42.5918 21.7324 42.8379C21.5501 43.084 21.459 43.3665 21.459 43.6855C21.459 44.1413 21.6458 44.4899 22.0195 44.7314C22.3932 44.973 22.8444 45.1621 23.373 45.2988L24.3574 45.5723C25.123 45.7637 25.7816 46.0645 26.333 46.4746C26.8844 46.8848 27.1602 47.4954 27.1602 48.3066C27.1602 48.8444 27.0189 49.332 26.7363 49.7695C26.4538 50.207 26.0413 50.5511 25.499 50.8018C24.9567 51.0524 24.3118 51.1777 23.5645 51.1777C22.8626 51.1777 22.2497 51.0638 21.7256 50.8359C21.2015 50.6081 20.7913 50.2868 20.4951 49.8721C20.1989 49.4574 20.0326 48.9766 19.9961 48.4297H21.2539C21.2904 48.7852 21.4157 49.0837 21.6299 49.3252C21.8441 49.5667 22.1198 49.749 22.457 49.8721C22.7943 49.9951 23.1634 50.0566 23.5645 50.0566C24.0202 50.0566 24.4303 49.9837 24.7949 49.8379C25.1595 49.6921 25.4443 49.4824 25.6494 49.209C25.8545 48.9355 25.957 48.6257 25.957 48.2793C25.957 47.9785 25.8727 47.7256 25.7041 47.5205C25.5355 47.3154 25.3122 47.1491 25.0342 47.0215C24.7562 46.8939 24.4121 46.7708 24.002 46.6523L22.7852 46.3242C21.974 46.0872 21.3519 45.7591 20.9189 45.3398C20.486 44.9206 20.2695 44.3874 20.2695 43.7402C20.2695 43.1934 20.4199 42.7103 20.7207 42.291C21.0215 41.8717 21.4294 41.5459 21.9443 41.3135C22.4593 41.0811 23.0358 40.9648 23.6738 40.9648C24.3027 40.9648 24.8678 41.0788 25.3691 41.3066C25.8704 41.5345 26.2669 41.8467 26.5586 42.2432C26.8503 42.6396 27.0052 43.0885 27.0234 43.5898H25.8203ZM32.0684 51.1367C31.3848 51.1367 30.7764 51.0182 30.2432 50.7812C29.71 50.5443 29.2952 50.2161 28.999 49.7969C28.7028 49.3776 28.5547 48.9036 28.5547 48.375C28.5547 47.9557 28.6413 47.5638 28.8145 47.1992C28.9876 46.8346 29.2292 46.5339 29.5391 46.2969C29.849 46.0599 30.1908 45.9141 30.5645 45.8594V45.8047C30.2454 45.7227 29.9629 45.5768 29.7168 45.3672C29.4707 45.1576 29.2793 44.8978 29.1426 44.5879C29.0059 44.278 28.9375 43.9453 28.9375 43.5898C28.9375 43.0885 29.0742 42.6374 29.3477 42.2363C29.6211 41.8353 29.9948 41.5231 30.4688 41.2998C30.9427 41.0765 31.4759 40.9648 32.0684 40.9648C32.6608 40.9648 33.1963 41.0765 33.6748 41.2998C34.1533 41.5231 34.5293 41.8353 34.8027 42.2363C35.0762 42.6374 35.2129 43.0885 35.2129 43.5898C35.2129 43.9453 35.1423 44.278 35.001 44.5879C34.8597 44.8978 34.666 45.1576 34.4199 45.3672C34.1738 45.5768 33.8913 45.7227 33.5723 45.8047V45.8594C33.946 45.9141 34.2855 46.0599 34.5908 46.2969C34.8962 46.5339 35.14 46.8346 35.3223 47.1992C35.5046 47.5638 35.5957 47.9557 35.5957 48.375C35.5957 48.9036 35.4453 49.3776 35.1445 49.7969C34.8438 50.2161 34.4268 50.5443 33.8936 50.7812C33.3604 51.0182 32.752 51.1367 32.0684 51.1367ZM32.0684 50.0566C32.5332 50.0566 32.9388 49.9837 33.2852 49.8379C33.6315 49.6921 33.8981 49.487 34.085 49.2227C34.2718 48.9583 34.3652 48.653 34.3652 48.3066C34.3652 47.9421 34.2673 47.6162 34.0713 47.3291C33.8753 47.042 33.6019 46.8164 33.251 46.6523C32.9001 46.4883 32.5059 46.4062 32.0684 46.4062C31.6309 46.4062 31.2367 46.4883 30.8857 46.6523C30.5348 46.8164 30.2614 47.042 30.0654 47.3291C29.8695 47.6162 29.776 47.9421 29.7852 48.3066C29.776 48.653 29.8649 48.9583 30.0518 49.2227C30.2386 49.487 30.5052 49.6921 30.8516 49.8379C31.1979 49.9837 31.6035 50.0566 32.0684 50.0566ZM32.0684 45.3672C32.4421 45.3672 32.777 45.2965 33.0732 45.1553C33.3695 45.014 33.5996 44.8158 33.7637 44.5605C33.9277 44.3053 34.0098 44.0137 34.0098 43.6855C34.0098 43.3574 33.93 43.068 33.7705 42.8174C33.611 42.5667 33.3831 42.373 33.0869 42.2363C32.7907 42.0996 32.4512 42.0312 32.0684 42.0312C31.6855 42.0312 31.346 42.0996 31.0498 42.2363C30.7536 42.373 30.5257 42.5667 30.3662 42.8174C30.2067 43.068 30.127 43.3574 30.127 43.6855C30.127 44.0137 30.2113 44.3053 30.3799 44.5605C30.5485 44.8158 30.7786 45.014 31.0703 45.1553C31.362 45.2965 31.6947 45.3672 32.0684 45.3672ZM40.4902 51.1367C39.7611 51.1367 39.139 50.9385 38.624 50.542C38.109 50.1455 37.7148 49.5667 37.4414 48.8057C37.168 48.0446 37.0312 47.1263 37.0312 46.0508C37.0312 44.9844 37.168 44.0706 37.4414 43.3096C37.7148 42.5485 38.1113 41.9674 38.6309 41.5664C39.1504 41.1654 39.7702 40.9648 40.4902 40.9648C41.2103 40.9648 41.8301 41.1654 42.3496 41.5664C42.8691 41.9674 43.2656 42.5485 43.5391 43.3096C43.8125 44.0706 43.9492 44.9844 43.9492 46.0508C43.9492 47.1263 43.8148 48.0446 43.5459 48.8057C43.277 49.5667 42.8828 50.1455 42.3633 50.542C41.8438 50.9385 41.2194 51.1367 40.4902 51.1367ZM40.4902 50.043C40.9642 50.043 41.3698 49.888 41.707 49.5781C42.0443 49.2682 42.3018 48.8148 42.4795 48.2178C42.6572 47.6208 42.7461 46.8984 42.7461 46.0508C42.7461 45.2031 42.6572 44.4785 42.4795 43.877C42.3018 43.2754 42.0443 42.8174 41.707 42.5029C41.3698 42.1885 40.9642 42.0312 40.4902 42.0312C40.0163 42.0312 39.6107 42.1885 39.2734 42.5029C38.9362 42.8174 38.6764 43.2754 38.4941 43.877C38.3118 44.4785 38.2207 45.2031 38.2207 46.0508C38.2207 46.8984 38.3096 47.6208 38.4873 48.2178C38.665 48.8148 38.9248 49.2682 39.2666 49.5781C39.6084 49.888 40.0163 50.043 40.4902 50.043ZM48.8301 51.1367C48.1009 51.1367 47.4788 50.9385 46.9639 50.542C46.4489 50.1455 46.0547 49.5667 45.7812 48.8057C45.5078 48.0446 45.3711 47.1263 45.3711 46.0508C45.3711 44.9844 45.5078 44.0706 45.7812 43.3096C46.0547 42.5485 46.4512 41.9674 46.9707 41.5664C47.4902 41.1654 48.11 40.9648 48.8301 40.9648C49.5501 40.9648 50.1699 41.1654 50.6895 41.5664C51.209 41.9674 51.6055 42.5485 51.8789 43.3096C52.1523 44.0706 52.2891 44.9844 52.2891 46.0508C52.2891 47.1263 52.1546 48.0446 51.8857 48.8057C51.6169 49.5667 51.2227 50.1455 50.7031 50.542C50.1836 50.9385 49.5592 51.1367 48.8301 51.1367ZM48.8301 50.043C49.304 50.043 49.7096 49.888 50.0469 49.5781C50.3841 49.2682 50.6416 48.8148 50.8193 48.2178C50.9971 47.6208 51.0859 46.8984 51.0859 46.0508C51.0859 45.2031 50.9971 44.4785 50.8193 43.877C50.6416 43.2754 50.3841 42.8174 50.0469 42.5029C49.7096 42.1885 49.304 42.0312 48.8301 42.0312C48.3561 42.0312 47.9505 42.1885 47.6133 42.5029C47.276 42.8174 47.0163 43.2754 46.834 43.877C46.6517 44.4785 46.5605 45.2031 46.5605 46.0508C46.5605 46.8984 46.6494 47.6208 46.8271 48.2178C47.0049 48.8148 47.2646 49.2682 47.6064 49.5781C47.9482 49.888 48.3561 50.043 48.8301 50.043Z" fill="black"/>
<path d="M24.0723 74.8574H24.8652V87.2441H24.0723V74.8574ZM26.7246 78.5898C26.6882 78.2708 26.5742 77.9951 26.3828 77.7627C26.1914 77.5303 25.9362 77.3548 25.6172 77.2363C25.2982 77.1178 24.9382 77.0586 24.5371 77.0586C24.1087 77.0586 23.7305 77.127 23.4023 77.2637C23.0742 77.4004 22.819 77.5918 22.6367 77.8379C22.4544 78.084 22.3633 78.3665 22.3633 78.6855C22.3633 79.1413 22.5501 79.4899 22.9238 79.7314C23.2975 79.973 23.7487 80.1621 24.2773 80.2988L25.2617 80.5723C26.0273 80.7637 26.6859 81.0645 27.2373 81.4746C27.7887 81.8848 28.0645 82.4954 28.0645 83.3066C28.0645 83.8444 27.9232 84.332 27.6406 84.7695C27.3581 85.207 26.9456 85.5511 26.4033 85.8018C25.861 86.0524 25.2161 86.1777 24.4688 86.1777C23.7669 86.1777 23.154 86.0638 22.6299 85.8359C22.1058 85.6081 21.6956 85.2868 21.3994 84.8721C21.1032 84.4574 20.9368 83.9766 20.9004 83.4297H22.1582C22.1947 83.7852 22.32 84.0837 22.5342 84.3252C22.7484 84.5667 23.0241 84.749 23.3613 84.8721C23.6986 84.9951 24.0677 85.0566 24.4688 85.0566C24.9245 85.0566 25.3346 84.9837 25.6992 84.8379C26.0638 84.6921 26.3486 84.4824 26.5537 84.209C26.7588 83.9355 26.8613 83.6257 26.8613 83.2793C26.8613 82.9785 26.777 82.7256 26.6084 82.5205C26.4398 82.3154 26.2165 82.1491 25.9385 82.0215C25.6605 81.8939 25.3164 81.7708 24.9062 81.6523L23.6895 81.3242C22.8783 81.0872 22.2562 80.7591 21.8232 80.3398C21.3903 79.9206 21.1738 79.3874 21.1738 78.7402C21.1738 78.1934 21.3242 77.7103 21.625 77.291C21.9258 76.8717 22.3337 76.5459 22.8486 76.3135C23.3636 76.0811 23.9401 75.9648 24.5781 75.9648C25.207 75.9648 25.7721 76.0788 26.2734 76.3066C26.7747 76.5345 27.1712 76.8467 27.4629 77.2432C27.7546 77.6396 27.9095 78.0885 27.9277 78.5898H26.7246ZM33.1094 86.1367C32.4714 86.1276 31.8835 85.9772 31.3457 85.6855C30.8079 85.3939 30.3659 84.8994 30.0195 84.2021C29.6732 83.5049 29.5 82.582 29.5 81.4336C29.5 80.276 29.6527 79.2871 29.958 78.4668C30.2633 77.6465 30.6963 77.0244 31.2568 76.6006C31.8174 76.1768 32.485 75.9648 33.2598 75.9648C33.834 75.9648 34.3467 76.0742 34.7979 76.293C35.249 76.5117 35.6204 76.8193 35.9121 77.2158C36.2038 77.6123 36.3906 78.0703 36.4727 78.5898H35.2559C35.1738 78.2891 35.0462 78.0225 34.873 77.79C34.6999 77.5576 34.4766 77.3776 34.2031 77.25C33.9297 77.1224 33.6152 77.0586 33.2598 77.0586C32.722 77.0586 32.2594 77.2067 31.8721 77.5029C31.4847 77.7992 31.1862 78.2298 30.9766 78.7949C30.7669 79.36 30.6621 80.0391 30.6621 80.832H30.7852C30.9766 80.5586 31.2021 80.3239 31.4619 80.1279C31.7217 79.932 32.0111 79.7816 32.3301 79.6768C32.6491 79.5719 32.9818 79.5195 33.3281 79.5195C33.9115 79.5195 34.4515 79.6608 34.9482 79.9434C35.445 80.2259 35.8369 80.6156 36.124 81.1123C36.4111 81.609 36.5547 82.1719 36.5547 82.8008C36.5547 83.4206 36.4111 83.9857 36.124 84.4961C35.8369 85.0065 35.4313 85.4076 34.9072 85.6992C34.3831 85.9909 33.7839 86.1367 33.1094 86.1367ZM33.1094 85.0566C33.5286 85.0566 33.9092 84.9564 34.251 84.7559C34.5928 84.5553 34.8639 84.2819 35.0645 83.9355C35.265 83.5892 35.3652 83.2155 35.3652 82.8145C35.3652 82.4043 35.2695 82.0306 35.0781 81.6934C34.8867 81.3561 34.6224 81.0895 34.2852 80.8936C33.9479 80.6976 33.5651 80.5996 33.1367 80.5996C32.7174 80.5996 32.3324 80.7021 31.9814 80.9072C31.6305 81.1123 31.3525 81.3857 31.1475 81.7275C30.9424 82.0693 30.8353 82.4362 30.8262 82.8281C30.8262 83.2109 30.9264 83.5732 31.127 83.915C31.3275 84.2568 31.6009 84.5326 31.9473 84.7422C32.2936 84.9518 32.681 85.0566 33.1094 85.0566ZM41.4902 86.1367C40.7611 86.1367 40.139 85.9385 39.624 85.542C39.109 85.1455 38.7148 84.5667 38.4414 83.8057C38.168 83.0446 38.0312 82.1263 38.0312 81.0508C38.0312 79.9844 38.168 79.0706 38.4414 78.3096C38.7148 77.5485 39.1113 76.9674 39.6309 76.5664C40.1504 76.1654 40.7702 75.9648 41.4902 75.9648C42.2103 75.9648 42.8301 76.1654 43.3496 76.5664C43.8691 76.9674 44.2656 77.5485 44.5391 78.3096C44.8125 79.0706 44.9492 79.9844 44.9492 81.0508C44.9492 82.1263 44.8148 83.0446 44.5459 83.8057C44.277 84.5667 43.8828 85.1455 43.3633 85.542C42.8438 85.9385 42.2194 86.1367 41.4902 86.1367ZM41.4902 85.043C41.9642 85.043 42.3698 84.888 42.707 84.5781C43.0443 84.2682 43.3018 83.8148 43.4795 83.2178C43.6572 82.6208 43.7461 81.8984 43.7461 81.0508C43.7461 80.2031 43.6572 79.4785 43.4795 78.877C43.3018 78.2754 43.0443 77.8174 42.707 77.5029C42.3698 77.1885 41.9642 77.0312 41.4902 77.0312C41.0163 77.0312 40.6107 77.1885 40.2734 77.5029C39.9362 77.8174 39.6764 78.2754 39.4941 78.877C39.3118 79.4785 39.2207 80.2031 39.2207 81.0508C39.2207 81.8984 39.3096 82.6208 39.4873 83.2178C39.665 83.8148 39.9248 84.2682 40.2666 84.5781C40.6084 84.888 41.0163 85.043 41.4902 85.043ZM49.8301 86.1367C49.1009 86.1367 48.4788 85.9385 47.9639 85.542C47.4489 85.1455 47.0547 84.5667 46.7812 83.8057C46.5078 83.0446 46.3711 82.1263 46.3711 81.0508C46.3711 79.9844 46.5078 79.0706 46.7812 78.3096C47.0547 77.5485 47.4512 76.9674 47.9707 76.5664C48.4902 76.1654 49.11 75.9648 49.8301 75.9648C50.5501 75.9648 51.1699 76.1654 51.6895 76.5664C52.209 76.9674 52.6055 77.5485 52.8789 78.3096C53.1523 79.0706 53.2891 79.9844 53.2891 81.0508C53.2891 82.1263 53.1546 83.0446 52.8857 83.8057C52.6169 84.5667 52.2227 85.1455 51.7031 85.542C51.1836 85.9385 50.5592 86.1367 49.8301 86.1367ZM49.8301 85.043C50.304 85.043 50.7096 84.888 51.0469 84.5781C51.3841 84.2682 51.6416 83.8148 51.8193 83.2178C51.9971 82.6208 52.0859 81.8984 52.0859 81.0508C52.0859 80.2031 51.9971 79.4785 51.8193 78.877C51.6416 78.2754 51.3841 77.8174 51.0469 77.5029C50.7096 77.1885 50.304 77.0312 49.8301 77.0312C49.3561 77.0312 48.9505 77.1885 48.6133 77.5029C48.276 77.8174 48.0163 78.2754 47.834 78.877C47.6517 79.4785 47.5605 80.2031 47.5605 81.0508C47.5605 81.8984 47.6494 82.6208 47.8271 83.2178C48.0049 83.8148 48.2646 84.2682 48.6064 84.5781C48.9482 84.888 49.3561 85.043 49.8301 85.043Z" fill="black"/>
<path d="M23.9219 108.857H24.7148V121.244H23.9219V108.857ZM26.5742 112.59C26.5378 112.271 26.4238 111.995 26.2324 111.763C26.041 111.53 25.7858 111.355 25.4668 111.236C25.1478 111.118 24.7878 111.059 24.3867 111.059C23.9583 111.059 23.5801 111.127 23.252 111.264C22.9238 111.4 22.6686 111.592 22.4863 111.838C22.304 112.084 22.2129 112.367 22.2129 112.686C22.2129 113.141 22.3997 113.49 22.7734 113.731C23.1471 113.973 23.5983 114.162 24.127 114.299L25.1113 114.572C25.877 114.764 26.5355 115.064 27.0869 115.475C27.6383 115.885 27.9141 116.495 27.9141 117.307C27.9141 117.844 27.7728 118.332 27.4902 118.77C27.2077 119.207 26.7952 119.551 26.2529 119.802C25.7106 120.052 25.0658 120.178 24.3184 120.178C23.6165 120.178 23.0036 120.064 22.4795 119.836C21.9554 119.608 21.5452 119.287 21.249 118.872C20.9528 118.457 20.7865 117.977 20.75 117.43H22.0078C22.0443 117.785 22.1696 118.084 22.3838 118.325C22.598 118.567 22.8737 118.749 23.2109 118.872C23.5482 118.995 23.9173 119.057 24.3184 119.057C24.7741 119.057 25.1842 118.984 25.5488 118.838C25.9134 118.692 26.1982 118.482 26.4033 118.209C26.6084 117.936 26.7109 117.626 26.7109 117.279C26.7109 116.979 26.6266 116.726 26.458 116.521C26.2894 116.315 26.0661 116.149 25.7881 116.021C25.5101 115.894 25.166 115.771 24.7559 115.652L23.5391 115.324C22.7279 115.087 22.1058 114.759 21.6729 114.34C21.2399 113.921 21.0234 113.387 21.0234 112.74C21.0234 112.193 21.1738 111.71 21.4746 111.291C21.7754 110.872 22.1833 110.546 22.6982 110.313C23.2132 110.081 23.7897 109.965 24.4277 109.965C25.0566 109.965 25.6217 110.079 26.123 110.307C26.6243 110.535 27.0208 110.847 27.3125 111.243C27.6042 111.64 27.7591 112.089 27.7773 112.59H26.5742ZM29.2676 116.965L33.7246 110.102H34.4629V111.66H33.9434L30.5938 116.814V116.896H36.623V117.977H29.2676V116.965ZM34.0664 117.676V117.197V110.102H35.2422V120H34.0664V117.676ZM41.4902 120.137C40.7611 120.137 40.139 119.938 39.624 119.542C39.109 119.146 38.7148 118.567 38.4414 117.806C38.168 117.045 38.0312 116.126 38.0312 115.051C38.0312 113.984 38.168 113.071 38.4414 112.31C38.7148 111.549 39.1113 110.967 39.6309 110.566C40.1504 110.165 40.7702 109.965 41.4902 109.965C42.2103 109.965 42.8301 110.165 43.3496 110.566C43.8691 110.967 44.2656 111.549 44.5391 112.31C44.8125 113.071 44.9492 113.984 44.9492 115.051C44.9492 116.126 44.8148 117.045 44.5459 117.806C44.277 118.567 43.8828 119.146 43.3633 119.542C42.8438 119.938 42.2194 120.137 41.4902 120.137ZM41.4902 119.043C41.9642 119.043 42.3698 118.888 42.707 118.578C43.0443 118.268 43.3018 117.815 43.4795 117.218C43.6572 116.621 43.7461 115.898 43.7461 115.051C43.7461 114.203 43.6572 113.479 43.4795 112.877C43.3018 112.275 43.0443 111.817 42.707 111.503C42.3698 111.188 41.9642 111.031 41.4902 111.031C41.0163 111.031 40.6107 111.188 40.2734 111.503C39.9362 111.817 39.6764 112.275 39.4941 112.877C39.3118 113.479 39.2207 114.203 39.2207 115.051C39.2207 115.898 39.3096 116.621 39.4873 117.218C39.665 117.815 39.9248 118.268 40.2666 118.578C40.6084 118.888 41.0163 119.043 41.4902 119.043ZM49.8301 120.137C49.1009 120.137 48.4788 119.938 47.9639 119.542C47.4489 119.146 47.0547 118.567 46.7812 117.806C46.5078 117.045 46.3711 116.126 46.3711 115.051C46.3711 113.984 46.5078 113.071 46.7812 112.31C47.0547 111.549 47.4512 110.967 47.9707 110.566C48.4902 110.165 49.11 109.965 49.8301 109.965C50.5501 109.965 51.1699 110.165 51.6895 110.566C52.209 110.967 52.6055 111.549 52.8789 112.31C53.1523 113.071 53.2891 113.984 53.2891 115.051C53.2891 116.126 53.1546 117.045 52.8857 117.806C52.6169 118.567 52.2227 119.146 51.7031 119.542C51.1836 119.938 50.5592 120.137 49.8301 120.137ZM49.8301 119.043C50.304 119.043 50.7096 118.888 51.0469 118.578C51.3841 118.268 51.6416 117.815 51.8193 117.218C51.9971 116.621 52.0859 115.898 52.0859 115.051C52.0859 114.203 51.9971 113.479 51.8193 112.877C51.6416 112.275 51.3841 111.817 51.0469 111.503C50.7096 111.188 50.304 111.031 49.8301 111.031C49.3561 111.031 48.9505 111.188 48.6133 111.503C48.276 111.817 48.0163 112.275 47.834 112.877C47.6517 113.479 47.5605 114.203 47.5605 115.051C47.5605 115.898 47.6494 116.621 47.8271 117.218C48.0049 117.815 48.2646 118.268 48.6064 118.578C48.9482 118.888 49.3561 119.043 49.8301 119.043Z" fill="black"/>
<path d="M23.4414 144.857H24.2344V157.244H23.4414V144.857ZM26.0938 148.59C26.0573 148.271 25.9434 147.995 25.752 147.763C25.5605 147.53 25.3053 147.355 24.9863 147.236C24.6673 147.118 24.3073 147.059 23.9062 147.059C23.4779 147.059 23.0996 147.127 22.7715 147.264C22.4434 147.4 22.1882 147.592 22.0059 147.838C21.8236 148.084 21.7324 148.367 21.7324 148.686C21.7324 149.141 21.9193 149.49 22.293 149.731C22.6667 149.973 23.1178 150.162 23.6465 150.299L24.6309 150.572C25.3965 150.764 26.055 151.064 26.6064 151.475C27.1579 151.885 27.4336 152.495 27.4336 153.307C27.4336 153.844 27.2923 154.332 27.0098 154.77C26.7272 155.207 26.3148 155.551 25.7725 155.802C25.2301 156.052 24.5853 156.178 23.8379 156.178C23.1361 156.178 22.5231 156.064 21.999 155.836C21.4749 155.608 21.0648 155.287 20.7686 154.872C20.4723 154.457 20.306 153.977 20.2695 153.43H21.5273C21.5638 153.785 21.6891 154.084 21.9033 154.325C22.1175 154.567 22.3932 154.749 22.7305 154.872C23.0677 154.995 23.4368 155.057 23.8379 155.057C24.2936 155.057 24.7038 154.984 25.0684 154.838C25.4329 154.692 25.7178 154.482 25.9229 154.209C26.1279 153.936 26.2305 153.626 26.2305 153.279C26.2305 152.979 26.1462 152.726 25.9775 152.521C25.8089 152.315 25.5856 152.149 25.3076 152.021C25.0296 151.894 24.6855 151.771 24.2754 151.652L23.0586 151.324C22.2474 151.087 21.6253 150.759 21.1924 150.34C20.7594 149.921 20.543 149.387 20.543 148.74C20.543 148.193 20.6934 147.71 20.9941 147.291C21.2949 146.872 21.7028 146.546 22.2178 146.313C22.7327 146.081 23.3092 145.965 23.9473 145.965C24.5762 145.965 25.1413 146.079 25.6426 146.307C26.1439 146.535 26.5404 146.847 26.832 147.243C27.1237 147.64 27.2786 148.089 27.2969 148.59H26.0938ZM29.0195 155.098L32.3965 151.543C32.8431 151.069 33.1849 150.688 33.4219 150.401C33.6589 150.114 33.8366 149.834 33.9551 149.561C34.0736 149.287 34.1328 149.005 34.1328 148.713C34.1328 148.385 34.0462 148.093 33.873 147.838C33.6999 147.583 33.4652 147.384 33.1689 147.243C32.8727 147.102 32.5378 147.031 32.1641 147.031C31.7812 147.031 31.444 147.109 31.1523 147.264C30.8607 147.419 30.6351 147.637 30.4756 147.92C30.3161 148.202 30.2363 148.526 30.2363 148.891H29.0742C29.0742 148.316 29.2087 147.808 29.4775 147.366C29.7464 146.924 30.1201 146.58 30.5986 146.334C31.0771 146.088 31.6126 145.965 32.2051 145.965C32.7975 145.965 33.3262 146.086 33.791 146.327C34.2559 146.569 34.6204 146.899 34.8848 147.318C35.1491 147.738 35.2812 148.202 35.2812 148.713C35.2812 149.087 35.2129 149.447 35.0762 149.793C34.9395 150.139 34.7116 150.52 34.3926 150.935C34.0736 151.349 33.6133 151.867 33.0117 152.486L30.7422 154.824V154.906H35.459V156H29.0332L29.0195 155.098ZM40.4902 156.137C39.7611 156.137 39.139 155.938 38.624 155.542C38.109 155.146 37.7148 154.567 37.4414 153.806C37.168 153.045 37.0312 152.126 37.0312 151.051C37.0312 149.984 37.168 149.071 37.4414 148.31C37.7148 147.549 38.1113 146.967 38.6309 146.566C39.1504 146.165 39.7702 145.965 40.4902 145.965C41.2103 145.965 41.8301 146.165 42.3496 146.566C42.8691 146.967 43.2656 147.549 43.5391 148.31C43.8125 149.071 43.9492 149.984 43.9492 151.051C43.9492 152.126 43.8148 153.045 43.5459 153.806C43.277 154.567 42.8828 155.146 42.3633 155.542C41.8438 155.938 41.2194 156.137 40.4902 156.137ZM40.4902 155.043C40.9642 155.043 41.3698 154.888 41.707 154.578C42.0443 154.268 42.3018 153.815 42.4795 153.218C42.6572 152.621 42.7461 151.898 42.7461 151.051C42.7461 150.203 42.6572 149.479 42.4795 148.877C42.3018 148.275 42.0443 147.817 41.707 147.503C41.3698 147.188 40.9642 147.031 40.4902 147.031C40.0163 147.031 39.6107 147.188 39.2734 147.503C38.9362 147.817 38.6764 148.275 38.4941 148.877C38.3118 149.479 38.2207 150.203 38.2207 151.051C38.2207 151.898 38.3096 152.621 38.4873 153.218C38.665 153.815 38.9248 154.268 39.2666 154.578C39.6084 154.888 40.0163 155.043 40.4902 155.043ZM48.8301 156.137C48.1009 156.137 47.4788 155.938 46.9639 155.542C46.4489 155.146 46.0547 154.567 45.7812 153.806C45.5078 153.045 45.3711 152.126 45.3711 151.051C45.3711 149.984 45.5078 149.071 45.7812 148.31C46.0547 147.549 46.4512 146.967 46.9707 146.566C47.4902 146.165 48.11 145.965 48.8301 145.965C49.5501 145.965 50.1699 146.165 50.6895 146.566C51.209 146.967 51.6055 147.549 51.8789 148.31C52.1523 149.071 52.2891 149.984 52.2891 151.051C52.2891 152.126 52.1546 153.045 51.8857 153.806C51.6169 154.567 51.2227 155.146 50.7031 155.542C50.1836 155.938 49.5592 156.137 48.8301 156.137ZM48.8301 155.043C49.304 155.043 49.7096 154.888 50.0469 154.578C50.3841 154.268 50.6416 153.815 50.8193 153.218C50.9971 152.621 51.0859 151.898 51.0859 151.051C51.0859 150.203 50.9971 149.479 50.8193 148.877C50.6416 148.275 50.3841 147.817 50.0469 147.503C49.7096 147.188 49.304 147.031 48.8301 147.031C48.3561 147.031 47.9505 147.188 47.6133 147.503C47.276 147.817 47.0163 148.275 46.834 148.877C46.6517 149.479 46.5605 150.203 46.5605 151.051C46.5605 151.898 46.6494 152.621 46.8271 153.218C47.0049 153.815 47.2646 154.268 47.6064 154.578C47.9482 154.888 48.3561 155.043 48.8301 155.043Z" fill="black"/>
<path d="M42.8418 175.857H43.6348V188.244H42.8418V175.857ZM45.4941 179.59C45.4577 179.271 45.3438 178.995 45.1523 178.763C44.9609 178.53 44.7057 178.355 44.3867 178.236C44.0677 178.118 43.7077 178.059 43.3066 178.059C42.8783 178.059 42.5 178.127 42.1719 178.264C41.8438 178.4 41.5885 178.592 41.4062 178.838C41.224 179.084 41.1328 179.367 41.1328 179.686C41.1328 180.141 41.3197 180.49 41.6934 180.731C42.0671 180.973 42.5182 181.162 43.0469 181.299L44.0312 181.572C44.7969 181.764 45.4554 182.064 46.0068 182.475C46.5583 182.885 46.834 183.495 46.834 184.307C46.834 184.844 46.6927 185.332 46.4102 185.77C46.1276 186.207 45.7152 186.551 45.1729 186.802C44.6305 187.052 43.9857 187.178 43.2383 187.178C42.5365 187.178 41.9235 187.064 41.3994 186.836C40.8753 186.608 40.4652 186.287 40.1689 185.872C39.8727 185.457 39.7064 184.977 39.6699 184.43H40.9277C40.9642 184.785 41.0895 185.084 41.3037 185.325C41.5179 185.567 41.7936 185.749 42.1309 185.872C42.4681 185.995 42.8372 186.057 43.2383 186.057C43.694 186.057 44.1042 185.984 44.4688 185.838C44.8333 185.692 45.1182 185.482 45.3232 185.209C45.5283 184.936 45.6309 184.626 45.6309 184.279C45.6309 183.979 45.5465 183.726 45.3779 183.521C45.2093 183.315 44.986 183.149 44.708 183.021C44.43 182.894 44.0859 182.771 43.6758 182.652L42.459 182.324C41.6478 182.087 41.0257 181.759 40.5928 181.34C40.1598 180.921 39.9434 180.387 39.9434 179.74C39.9434 179.193 40.0938 178.71 40.3945 178.291C40.6953 177.872 41.1032 177.546 41.6182 177.313C42.1331 177.081 42.7096 176.965 43.3477 176.965C43.9766 176.965 44.5417 177.079 45.043 177.307C45.5443 177.535 45.9408 177.847 46.2324 178.243C46.5241 178.64 46.679 179.089 46.6973 179.59H45.4941ZM51.6738 187.137C50.9447 187.137 50.3226 186.938 49.8076 186.542C49.2926 186.146 48.8984 185.567 48.625 184.806C48.3516 184.045 48.2148 183.126 48.2148 182.051C48.2148 180.984 48.3516 180.071 48.625 179.31C48.8984 178.549 49.2949 177.967 49.8145 177.566C50.334 177.165 50.9538 176.965 51.6738 176.965C52.3939 176.965 53.0137 177.165 53.5332 177.566C54.0527 177.967 54.4492 178.549 54.7227 179.31C54.9961 180.071 55.1328 180.984 55.1328 182.051C55.1328 183.126 54.9984 184.045 54.7295 184.806C54.4606 185.567 54.0664 186.146 53.5469 186.542C53.0273 186.938 52.403 187.137 51.6738 187.137ZM51.6738 186.043C52.1478 186.043 52.5534 185.888 52.8906 185.578C53.2279 185.268 53.4854 184.815 53.6631 184.218C53.8408 183.621 53.9297 182.898 53.9297 182.051C53.9297 181.203 53.8408 180.479 53.6631 179.877C53.4854 179.275 53.2279 178.817 52.8906 178.503C52.5534 178.188 52.1478 178.031 51.6738 178.031C51.1999 178.031 50.7943 178.188 50.457 178.503C50.1198 178.817 49.86 179.275 49.6777 179.877C49.4954 180.479 49.4043 181.203 49.4043 182.051C49.4043 182.898 49.4932 183.621 49.6709 184.218C49.8486 184.815 50.1084 185.268 50.4502 185.578C50.792 185.888 51.1999 186.043 51.6738 186.043Z" fill="black"/>
<path d="M120.18 108.449H120.859V119.066H120.18V108.449ZM122.453 111.648C122.422 111.375 122.324 111.139 122.16 110.939C121.996 110.74 121.777 110.59 121.504 110.488C121.23 110.387 120.922 110.336 120.578 110.336C120.211 110.336 119.887 110.395 119.605 110.512C119.324 110.629 119.105 110.793 118.949 111.004C118.793 111.215 118.715 111.457 118.715 111.73C118.715 112.121 118.875 112.42 119.195 112.627C119.516 112.834 119.902 112.996 120.355 113.113L121.199 113.348C121.855 113.512 122.42 113.77 122.893 114.121C123.365 114.473 123.602 114.996 123.602 115.691C123.602 116.152 123.48 116.57 123.238 116.945C122.996 117.32 122.643 117.615 122.178 117.83C121.713 118.045 121.16 118.152 120.52 118.152C119.918 118.152 119.393 118.055 118.943 117.859C118.494 117.664 118.143 117.389 117.889 117.033C117.635 116.678 117.492 116.266 117.461 115.797H118.539C118.57 116.102 118.678 116.357 118.861 116.564C119.045 116.771 119.281 116.928 119.57 117.033C119.859 117.139 120.176 117.191 120.52 117.191C120.91 117.191 121.262 117.129 121.574 117.004C121.887 116.879 122.131 116.699 122.307 116.465C122.482 116.23 122.57 115.965 122.57 115.668C122.57 115.41 122.498 115.193 122.354 115.018C122.209 114.842 122.018 114.699 121.779 114.59C121.541 114.48 121.246 114.375 120.895 114.273L119.852 113.992C119.156 113.789 118.623 113.508 118.252 113.148C117.881 112.789 117.695 112.332 117.695 111.777C117.695 111.309 117.824 110.895 118.082 110.535C118.34 110.176 118.689 109.896 119.131 109.697C119.572 109.498 120.066 109.398 120.613 109.398C121.152 109.398 121.637 109.496 122.066 109.691C122.496 109.887 122.836 110.154 123.086 110.494C123.336 110.834 123.469 111.219 123.484 111.648H122.453ZM127.902 118.117C127.348 118.117 126.85 118.023 126.408 117.836C125.967 117.648 125.619 117.385 125.365 117.045C125.111 116.705 124.973 116.312 124.949 115.867H126.016C126.039 116.125 126.135 116.354 126.303 116.553C126.471 116.752 126.693 116.906 126.971 117.016C127.248 117.125 127.555 117.18 127.891 117.18C128.258 117.18 128.59 117.115 128.887 116.986C129.184 116.857 129.414 116.682 129.578 116.459C129.742 116.236 129.824 115.98 129.824 115.691C129.824 115.379 129.744 115.104 129.584 114.865C129.424 114.627 129.189 114.441 128.881 114.309C128.572 114.176 128.199 114.109 127.762 114.109H127.07V113.184H127.762C128.105 113.184 128.41 113.123 128.676 113.002C128.941 112.881 129.146 112.711 129.291 112.492C129.436 112.273 129.508 112.02 129.508 111.73C129.508 111.449 129.443 111.201 129.314 110.986C129.186 110.771 129.002 110.605 128.764 110.488C128.525 110.371 128.246 110.312 127.926 110.312C127.621 110.312 127.336 110.367 127.07 110.477C126.805 110.586 126.588 110.74 126.42 110.939C126.252 111.139 126.16 111.375 126.145 111.648H125.125C125.148 111.211 125.287 110.82 125.541 110.477C125.795 110.133 126.133 109.867 126.555 109.68C126.977 109.492 127.438 109.398 127.938 109.398C128.461 109.398 128.92 109.5 129.314 109.703C129.709 109.906 130.012 110.182 130.223 110.529C130.434 110.877 130.535 111.258 130.527 111.672C130.535 111.984 130.48 112.271 130.363 112.533C130.246 112.795 130.078 113.016 129.859 113.195C129.641 113.375 129.383 113.508 129.086 113.594V113.652C129.453 113.707 129.77 113.828 130.035 114.016C130.301 114.203 130.506 114.439 130.65 114.725C130.795 115.01 130.863 115.332 130.855 115.691C130.863 116.145 130.738 116.557 130.48 116.928C130.223 117.299 129.867 117.59 129.414 117.801C128.961 118.012 128.457 118.117 127.902 118.117ZM132.168 115.398L135.988 109.516H136.621V110.852H136.176L133.305 115.27V115.34H138.473V116.266H132.168V115.398ZM136.281 116.008V115.598V109.516H137.289V118H136.281V116.008ZM139.855 117.227L142.75 114.18C143.133 113.773 143.426 113.447 143.629 113.201C143.832 112.955 143.984 112.715 144.086 112.48C144.188 112.246 144.238 112.004 144.238 111.754C144.238 111.473 144.164 111.223 144.016 111.004C143.867 110.785 143.666 110.615 143.412 110.494C143.158 110.373 142.871 110.312 142.551 110.312C142.223 110.312 141.934 110.379 141.684 110.512C141.434 110.645 141.24 110.832 141.104 111.074C140.967 111.316 140.898 111.594 140.898 111.906H139.902C139.902 111.414 140.018 110.979 140.248 110.6C140.479 110.221 140.799 109.926 141.209 109.715C141.619 109.504 142.078 109.398 142.586 109.398C143.094 109.398 143.547 109.502 143.945 109.709C144.344 109.916 144.656 110.199 144.883 110.559C145.109 110.918 145.223 111.316 145.223 111.754C145.223 112.074 145.164 112.383 145.047 112.68C144.93 112.977 144.734 113.303 144.461 113.658C144.188 114.014 143.793 114.457 143.277 114.988L141.332 116.992V117.062H145.375V118H139.867L139.855 117.227Z" fill="#595959"/>
<path d="M226.473 120.449H227.152V131.066H226.473V120.449ZM228.746 123.648C228.715 123.375 228.617 123.139 228.453 122.939C228.289 122.74 228.07 122.59 227.797 122.488C227.523 122.387 227.215 122.336 226.871 122.336C226.504 122.336 226.18 122.395 225.898 122.512C225.617 122.629 225.398 122.793 225.242 123.004C225.086 123.215 225.008 123.457 225.008 123.73C225.008 124.121 225.168 124.42 225.488 124.627C225.809 124.834 226.195 124.996 226.648 125.113L227.492 125.348C228.148 125.512 228.713 125.77 229.186 126.121C229.658 126.473 229.895 126.996 229.895 127.691C229.895 128.152 229.773 128.57 229.531 128.945C229.289 129.32 228.936 129.615 228.471 129.83C228.006 130.045 227.453 130.152 226.812 130.152C226.211 130.152 225.686 130.055 225.236 129.859C224.787 129.664 224.436 129.389 224.182 129.033C223.928 128.678 223.785 128.266 223.754 127.797H224.832C224.863 128.102 224.971 128.357 225.154 128.564C225.338 128.771 225.574 128.928 225.863 129.033C226.152 129.139 226.469 129.191 226.812 129.191C227.203 129.191 227.555 129.129 227.867 129.004C228.18 128.879 228.424 128.699 228.6 128.465C228.775 128.23 228.863 127.965 228.863 127.668C228.863 127.41 228.791 127.193 228.646 127.018C228.502 126.842 228.311 126.699 228.072 126.59C227.834 126.48 227.539 126.375 227.188 126.273L226.145 125.992C225.449 125.789 224.916 125.508 224.545 125.148C224.174 124.789 223.988 124.332 223.988 123.777C223.988 123.309 224.117 122.895 224.375 122.535C224.633 122.176 224.982 121.896 225.424 121.697C225.865 121.498 226.359 121.398 226.906 121.398C227.445 121.398 227.93 121.496 228.359 121.691C228.789 121.887 229.129 122.154 229.379 122.494C229.629 122.834 229.762 123.219 229.777 123.648H228.746ZM231.254 129.227L234.148 126.18C234.531 125.773 234.824 125.447 235.027 125.201C235.23 124.955 235.383 124.715 235.484 124.48C235.586 124.246 235.637 124.004 235.637 123.754C235.637 123.473 235.562 123.223 235.414 123.004C235.266 122.785 235.064 122.615 234.811 122.494C234.557 122.373 234.27 122.312 233.949 122.312C233.621 122.312 233.332 122.379 233.082 122.512C232.832 122.645 232.639 122.832 232.502 123.074C232.365 123.316 232.297 123.594 232.297 123.906H231.301C231.301 123.414 231.416 122.979 231.646 122.6C231.877 122.221 232.197 121.926 232.607 121.715C233.018 121.504 233.477 121.398 233.984 121.398C234.492 121.398 234.945 121.502 235.344 121.709C235.742 121.916 236.055 122.199 236.281 122.559C236.508 122.918 236.621 123.316 236.621 123.754C236.621 124.074 236.562 124.383 236.445 124.68C236.328 124.977 236.133 125.303 235.859 125.658C235.586 126.014 235.191 126.457 234.676 126.988L232.73 128.992V129.062H236.773V130H231.266L231.254 129.227ZM241.074 130.117C240.574 130.117 240.117 130.02 239.703 129.824C239.289 129.629 238.961 129.361 238.719 129.021C238.477 128.682 238.344 128.297 238.32 127.867H239.34C239.371 128.117 239.467 128.342 239.627 128.541C239.787 128.74 239.994 128.898 240.248 129.016C240.502 129.133 240.777 129.191 241.074 129.191C241.434 129.191 241.758 129.109 242.047 128.945C242.336 128.781 242.562 128.557 242.727 128.271C242.891 127.986 242.973 127.668 242.973 127.316C242.973 126.949 242.889 126.621 242.721 126.332C242.553 126.043 242.318 125.814 242.018 125.646C241.717 125.479 241.379 125.395 241.004 125.395C240.637 125.387 240.32 125.443 240.055 125.564C239.789 125.686 239.578 125.883 239.422 126.156H238.402L239 121.516H243.594V122.453H239.879L239.562 124.938H239.645C239.84 124.789 240.074 124.67 240.348 124.58C240.621 124.49 240.902 124.445 241.191 124.445C241.723 124.445 242.203 124.566 242.633 124.809C243.062 125.051 243.398 125.389 243.641 125.822C243.883 126.256 244.004 126.746 244.004 127.293C244.004 127.832 243.877 128.316 243.623 128.746C243.369 129.176 243.02 129.512 242.574 129.754C242.129 129.996 241.629 130.117 241.074 130.117ZM248.246 130.117C247.621 130.117 247.088 129.947 246.646 129.607C246.205 129.268 245.867 128.771 245.633 128.119C245.398 127.467 245.281 126.68 245.281 125.758C245.281 124.844 245.398 124.061 245.633 123.408C245.867 122.756 246.207 122.258 246.652 121.914C247.098 121.57 247.629 121.398 248.246 121.398C248.863 121.398 249.395 121.57 249.84 121.914C250.285 122.258 250.625 122.756 250.859 123.408C251.094 124.061 251.211 124.844 251.211 125.758C251.211 126.68 251.096 127.467 250.865 128.119C250.635 128.771 250.297 129.268 249.852 129.607C249.406 129.947 248.871 130.117 248.246 130.117ZM248.246 129.18C248.652 129.18 249 129.047 249.289 128.781C249.578 128.516 249.799 128.127 249.951 127.615C250.104 127.104 250.18 126.484 250.18 125.758C250.18 125.031 250.104 124.41 249.951 123.895C249.799 123.379 249.578 122.986 249.289 122.717C249 122.447 248.652 122.312 248.246 122.312C247.84 122.312 247.492 122.447 247.203 122.717C246.914 122.986 246.691 123.379 246.535 123.895C246.379 124.41 246.301 125.031 246.301 125.758C246.301 126.484 246.377 127.104 246.529 127.615C246.682 128.127 246.904 128.516 247.197 128.781C247.49 129.047 247.84 129.18 248.246 129.18Z" fill="#595959"/>
<path d="M332.678 46.4492H333.357V57.0664H332.678V46.4492ZM334.951 49.6484C334.92 49.375 334.822 49.1387 334.658 48.9395C334.494 48.7402 334.275 48.5898 334.002 48.4883C333.729 48.3867 333.42 48.3359 333.076 48.3359C332.709 48.3359 332.385 48.3945 332.104 48.5117C331.822 48.6289 331.604 48.793 331.447 49.0039C331.291 49.2148 331.213 49.457 331.213 49.7305C331.213 50.1211 331.373 50.4199 331.693 50.627C332.014 50.834 332.4 50.9961 332.854 51.1133L333.697 51.3477C334.354 51.5117 334.918 51.7695 335.391 52.1211C335.863 52.4727 336.1 52.9961 336.1 53.6914C336.1 54.1523 335.979 54.5703 335.736 54.9453C335.494 55.3203 335.141 55.6152 334.676 55.8301C334.211 56.0449 333.658 56.1523 333.018 56.1523C332.416 56.1523 331.891 56.0547 331.441 55.8594C330.992 55.6641 330.641 55.3887 330.387 55.0332C330.133 54.6777 329.99 54.2656 329.959 53.7969H331.037C331.068 54.1016 331.176 54.3574 331.359 54.5645C331.543 54.7715 331.779 54.9277 332.068 55.0332C332.357 55.1387 332.674 55.1914 333.018 55.1914C333.408 55.1914 333.76 55.1289 334.072 55.0039C334.385 54.8789 334.629 54.6992 334.805 54.4648C334.98 54.2305 335.068 53.9648 335.068 53.668C335.068 53.4102 334.996 53.1934 334.852 53.0176C334.707 52.8418 334.516 52.6992 334.277 52.5898C334.039 52.4805 333.744 52.375 333.393 52.2734L332.35 51.9922C331.654 51.7891 331.121 51.5078 330.75 51.1484C330.379 50.7891 330.193 50.332 330.193 49.7773C330.193 49.3086 330.322 48.8945 330.58 48.5352C330.838 48.1758 331.188 47.8965 331.629 47.6973C332.07 47.498 332.564 47.3984 333.111 47.3984C333.65 47.3984 334.135 47.4961 334.564 47.6914C334.994 47.8867 335.334 48.1543 335.584 48.4941C335.834 48.834 335.967 49.2188 335.982 49.6484H334.951ZM341.631 48.5117V48.4531H337.143V47.5156H342.721V48.5L338.842 56H337.74L341.631 48.5117ZM346.857 56.1172C346.311 56.1094 345.807 55.9805 345.346 55.7305C344.885 55.4805 344.506 55.0566 344.209 54.459C343.912 53.8613 343.764 53.0703 343.764 52.0859C343.764 51.0938 343.895 50.2461 344.156 49.543C344.418 48.8398 344.789 48.3066 345.27 47.9434C345.75 47.5801 346.322 47.3984 346.986 47.3984C347.479 47.3984 347.918 47.4922 348.305 47.6797C348.691 47.8672 349.01 48.1309 349.26 48.4707C349.51 48.8105 349.67 49.2031 349.74 49.6484H348.697C348.627 49.3906 348.518 49.1621 348.369 48.9629C348.221 48.7637 348.029 48.6094 347.795 48.5C347.561 48.3906 347.291 48.3359 346.986 48.3359C346.525 48.3359 346.129 48.4629 345.797 48.7168C345.465 48.9707 345.209 49.3398 345.029 49.8242C344.85 50.3086 344.76 50.8906 344.76 51.5703H344.865C345.029 51.3359 345.223 51.1348 345.445 50.9668C345.668 50.7988 345.916 50.6699 346.189 50.5801C346.463 50.4902 346.748 50.4453 347.045 50.4453C347.545 50.4453 348.008 50.5664 348.434 50.8086C348.859 51.0508 349.195 51.3848 349.441 51.8105C349.688 52.2363 349.811 52.7188 349.811 53.2578C349.811 53.7891 349.688 54.2734 349.441 54.7109C349.195 55.1484 348.848 55.4922 348.398 55.7422C347.949 55.9922 347.436 56.1172 346.857 56.1172ZM346.857 55.1914C347.217 55.1914 347.543 55.1055 347.836 54.9336C348.129 54.7617 348.361 54.5273 348.533 54.2305C348.705 53.9336 348.791 53.6133 348.791 53.2695C348.791 52.918 348.709 52.5977 348.545 52.3086C348.381 52.0195 348.154 51.791 347.865 51.623C347.576 51.4551 347.248 51.3711 346.881 51.3711C346.521 51.3711 346.191 51.459 345.891 51.6348C345.59 51.8105 345.352 52.0449 345.176 52.3379C345 52.6309 344.908 52.9453 344.9 53.2812C344.9 53.6094 344.986 53.9199 345.158 54.2129C345.33 54.5059 345.564 54.7422 345.861 54.9219C346.158 55.1016 346.49 55.1914 346.857 55.1914ZM354.041 56.1172C353.416 56.1172 352.883 55.9473 352.441 55.6074C352 55.2676 351.662 54.7715 351.428 54.1191C351.193 53.4668 351.076 52.6797 351.076 51.7578C351.076 50.8438 351.193 50.0605 351.428 49.4082C351.662 48.7559 352.002 48.2578 352.447 47.9141C352.893 47.5703 353.424 47.3984 354.041 47.3984C354.658 47.3984 355.189 47.5703 355.635 47.9141C356.08 48.2578 356.42 48.7559 356.654 49.4082C356.889 50.0605 357.006 50.8438 357.006 51.7578C357.006 52.6797 356.891 53.4668 356.66 54.1191C356.43 54.7715 356.092 55.2676 355.646 55.6074C355.201 55.9473 354.666 56.1172 354.041 56.1172ZM354.041 55.1797C354.447 55.1797 354.795 55.0469 355.084 54.7812C355.373 54.5156 355.594 54.127 355.746 53.6152C355.898 53.1035 355.975 52.4844 355.975 51.7578C355.975 51.0312 355.898 50.4102 355.746 49.8945C355.594 49.3789 355.373 48.9863 355.084 48.7168C354.795 48.4473 354.447 48.3125 354.041 48.3125C353.635 48.3125 353.287 48.4473 352.998 48.7168C352.709 48.9863 352.486 49.3789 352.33 49.8945C352.174 50.4102 352.096 51.0312 352.096 51.7578C352.096 52.4844 352.172 53.1035 352.324 53.6152C352.477 54.127 352.699 54.5156 352.992 54.7812C353.285 55.0469 353.635 55.1797 354.041 55.1797Z" fill="#595959"/>
<path d="M438.777 77.4492H439.457V88.0664H438.777V77.4492ZM441.051 80.6484C441.02 80.375 440.922 80.1387 440.758 79.9395C440.594 79.7402 440.375 79.5898 440.102 79.4883C439.828 79.3867 439.52 79.3359 439.176 79.3359C438.809 79.3359 438.484 79.3945 438.203 79.5117C437.922 79.6289 437.703 79.793 437.547 80.0039C437.391 80.2148 437.312 80.457 437.312 80.7305C437.312 81.1211 437.473 81.4199 437.793 81.627C438.113 81.834 438.5 81.9961 438.953 82.1133L439.797 82.3477C440.453 82.5117 441.018 82.7695 441.49 83.1211C441.963 83.4727 442.199 83.9961 442.199 84.6914C442.199 85.1523 442.078 85.5703 441.836 85.9453C441.594 86.3203 441.24 86.6152 440.775 86.8301C440.311 87.0449 439.758 87.1523 439.117 87.1523C438.516 87.1523 437.99 87.0547 437.541 86.8594C437.092 86.6641 436.74 86.3887 436.486 86.0332C436.232 85.6777 436.09 85.2656 436.059 84.7969H437.137C437.168 85.1016 437.275 85.3574 437.459 85.5645C437.643 85.7715 437.879 85.9277 438.168 86.0332C438.457 86.1387 438.773 86.1914 439.117 86.1914C439.508 86.1914 439.859 86.1289 440.172 86.0039C440.484 85.8789 440.729 85.6992 440.904 85.4648C441.08 85.2305 441.168 84.9648 441.168 84.668C441.168 84.4102 441.096 84.1934 440.951 84.0176C440.807 83.8418 440.615 83.6992 440.377 83.5898C440.139 83.4805 439.844 83.375 439.492 83.2734L438.449 82.9922C437.754 82.7891 437.221 82.5078 436.85 82.1484C436.479 81.7891 436.293 81.332 436.293 80.7773C436.293 80.3086 436.422 79.8945 436.68 79.5352C436.938 79.1758 437.287 78.8965 437.729 78.6973C438.17 78.498 438.664 78.3984 439.211 78.3984C439.75 78.3984 440.234 78.4961 440.664 78.6914C441.094 78.8867 441.434 79.1543 441.684 79.4941C441.934 79.834 442.066 80.2188 442.082 80.6484H441.051ZM446.336 87.1172C445.836 87.1172 445.379 87.0195 444.965 86.8242C444.551 86.6289 444.223 86.3613 443.98 86.0215C443.738 85.6816 443.605 85.2969 443.582 84.8672H444.602C444.633 85.1172 444.729 85.3418 444.889 85.541C445.049 85.7402 445.256 85.8984 445.51 86.0156C445.764 86.1328 446.039 86.1914 446.336 86.1914C446.695 86.1914 447.02 86.1094 447.309 85.9453C447.598 85.7812 447.824 85.5566 447.988 85.2715C448.152 84.9863 448.234 84.668 448.234 84.3164C448.234 83.9492 448.15 83.6211 447.982 83.332C447.814 83.043 447.58 82.8145 447.279 82.6465C446.979 82.4785 446.641 82.3945 446.266 82.3945C445.898 82.3867 445.582 82.4434 445.316 82.5645C445.051 82.6855 444.84 82.8828 444.684 83.1562H443.664L444.262 78.5156H448.855V79.4531H445.141L444.824 81.9375H444.906C445.102 81.7891 445.336 81.6699 445.609 81.5801C445.883 81.4902 446.164 81.4453 446.453 81.4453C446.984 81.4453 447.465 81.5664 447.895 81.8086C448.324 82.0508 448.66 82.3887 448.902 82.8223C449.145 83.2559 449.266 83.7461 449.266 84.293C449.266 84.832 449.139 85.3164 448.885 85.7461C448.631 86.1758 448.281 86.5117 447.836 86.7539C447.391 86.9961 446.891 87.1172 446.336 87.1172ZM454.891 79.5117V79.4531H450.402V78.5156H455.98V79.5L452.102 87H451L454.891 79.5117ZM459.941 87.1172C459.316 87.1172 458.783 86.9473 458.342 86.6074C457.9 86.2676 457.562 85.7715 457.328 85.1191C457.094 84.4668 456.977 83.6797 456.977 82.7578C456.977 81.8438 457.094 81.0605 457.328 80.4082C457.562 79.7559 457.902 79.2578 458.348 78.9141C458.793 78.5703 459.324 78.3984 459.941 78.3984C460.559 78.3984 461.09 78.5703 461.535 78.9141C461.98 79.2578 462.32 79.7559 462.555 80.4082C462.789 81.0605 462.906 81.8438 462.906 82.7578C462.906 83.6797 462.791 84.4668 462.561 85.1191C462.33 85.7715 461.992 86.2676 461.547 86.6074C461.102 86.9473 460.566 87.1172 459.941 87.1172ZM459.941 86.1797C460.348 86.1797 460.695 86.0469 460.984 85.7812C461.273 85.5156 461.494 85.127 461.646 84.6152C461.799 84.1035 461.875 83.4844 461.875 82.7578C461.875 82.0312 461.799 81.4102 461.646 80.8945C461.494 80.3789 461.273 79.9863 460.984 79.7168C460.695 79.4473 460.348 79.3125 459.941 79.3125C459.535 79.3125 459.188 79.4473 458.898 79.7168C458.609 79.9863 458.387 80.3789 458.23 80.8945C458.074 81.4102 457.996 82.0312 457.996 82.7578C457.996 83.4844 458.072 84.1035 458.225 84.6152C458.377 85.127 458.6 85.5156 458.893 85.7812C459.186 86.0469 459.535 86.1797 459.941 86.1797Z" fill="#595959"/>
<rect x="220" y="136" width="35" height="50" fill="#A7CBA4"/>
<rect x="326" y="62" width="35" height="124" fill="#BAE7FF"/>
<rect x="432" y="93" width="35" height="93" fill="#B7EB8F"/>
<rect x="114" y="124" width="35" height="62" fill="#B3E6E2"/>
</svg>
